<svg xmlns="http://www.w3.org/2000/svg" version="1.1" viewBox="0 0 18 18">
    <g clip-path="url(#cross)">
        <rect width="18" height="0" rx="0" ry="0" fill="#050505" stroke-width="0">
            <animate attributeName="height" values="0; 18; 0" dur="2s" repeatCount="indefinite" />
        </rect>
        <clipPath id="cross">
            <path d="M4.44558,1.1132l4.5042,4.51543l4.62442-4.6129L16.887,4.33687L12.2627,8.94976l4.7215,4.73334-3.3211,3.3129-4.72157-4.7334-4.62439,4.6129-3.31288-3.3211L5.62865,8.9415L1.12445,4.42608l1.00011-.99824L4.44558,1.1132Z" fill="none" stroke="#050505"/>
        </clipPath>
    </g>
    <path d="M4.44558,1.1132l4.5042,4.51543l4.62442-4.6129L16.887,4.33687L12.2627,8.94976l4.7215,4.73334-3.3211,3.3129-4.72157-4.7334-4.62439,4.6129-3.31288-3.3211L5.62865,8.9415L1.12445,4.42608l1.00011-.99824L4.44558,1.1132Z" fill="none" stroke="#050505"/>
</svg>