<svg width="48" height="48" viewBox="0 0 48 48" fill="none" xmlns="http://www.w3.org/2000/svg">
<path d="M9.62976 36.5016C9.32187 36.5016 8.82286 36.1725 8.48312 35.7372C8.26016 35.4611 7.93103 34.9197 8.19645 34.41C8.27077 34.2932 8.33448 34.1765 8.4088 34.0597L8.45126 33.9854L10.2774 35.8221L10.2456 35.8646C10.1712 35.9814 10.1075 36.0982 10.0332 36.2149C9.98013 36.2999 9.88458 36.4379 9.70408 36.491C9.68285 36.5016 9.66162 36.5016 9.62976 36.5016ZM8.4725 34.2083C8.41941 34.3039 8.36633 34.3888 8.31324 34.4737C8.09028 34.909 8.38756 35.3974 8.58929 35.6416C8.96089 36.1088 9.47051 36.3954 9.68285 36.3424C9.81026 36.3105 9.87396 36.2043 9.92704 36.13C9.98013 36.0345 10.0438 35.9389 10.1075 35.8327L8.4725 34.2083Z" fill="#050505"/>
<path d="M41.3962 4.75667C41.3219 4.75667 41.2476 4.74606 41.1414 4.69297C41.1308 4.69297 40.5575 4.33199 40.5787 4.04533C40.5787 3.98162 40.6212 3.89669 40.7592 3.8436C40.8335 3.82237 40.8866 3.81175 40.9397 3.79052C40.9715 3.7799 41.0034 3.76928 41.0459 3.75866L41.0883 3.74805L41.9483 4.60803L41.8315 4.63988C41.7466 4.66112 41.6616 4.69297 41.5767 4.7142C41.5342 4.74606 41.4705 4.75667 41.3962 4.75667ZM41.0459 3.91792C41.014 3.92854 40.9928 3.92854 40.9715 3.93915C40.9184 3.94977 40.876 3.96039 40.8017 3.98162C40.7167 4.01347 40.7167 4.04533 40.7167 4.05594C40.7061 4.2152 41.1202 4.5231 41.2051 4.56557C41.3537 4.63988 41.4599 4.60803 41.5236 4.5868C41.5767 4.56557 41.6192 4.55495 41.6723 4.54433L41.0459 3.91792Z" fill="#050505"/>
<path d="M38.2429 7.03937L38.211 6.98629C37.9669 6.59345 37.7227 6.20062 37.4785 5.80778L37.3086 5.53174L37.574 5.71223C38.0093 5.99889 38.434 6.28555 38.8693 6.57222L38.9649 6.63592L38.8587 6.68901C38.6782 6.79518 38.4871 6.90135 38.296 7.00752L38.2429 7.03937ZM37.7651 5.99889C37.9456 6.28555 38.1155 6.5616 38.2854 6.84826C38.4234 6.77394 38.5614 6.68901 38.6888 6.61469C38.3809 6.41296 38.073 6.20062 37.7651 5.99889Z" fill="#050505"/>
<path d="M28.6238 14.8109C27.9124 14.8109 27.3816 14.0359 27.3179 13.8872C27.0843 13.3988 27.1692 13.0378 27.6151 12.6238C27.7638 12.4964 27.923 12.3583 28.0717 12.2309L28.1248 12.1885L29.9509 14.0252L29.8978 14.0783C29.7492 14.2057 29.6005 14.3331 29.4413 14.4712C29.2926 14.5879 29.0272 14.8003 28.645 14.8109C28.6344 14.8109 28.6238 14.8109 28.6238 14.8109ZM27.4453 13.8341C27.4983 13.9403 27.9973 14.6729 28.6238 14.6729H28.6344C28.9635 14.6729 29.2077 14.4712 29.3351 14.365C29.4625 14.2482 29.6005 14.142 29.7279 14.0252L28.1035 12.3902C27.9655 12.507 27.8381 12.6238 27.7001 12.7406C27.3072 13.1015 27.2329 13.3988 27.4453 13.8341Z" fill="#050505"/>
<path d="M7.53805 40.1114L7.44249 39.9947C7.02843 39.4744 6.86917 39.2833 6.47634 38.7949L6.10474 38.3384L6.57189 38.6994C7.04966 39.071 7.10275 39.1134 7.6336 39.5169L7.67607 39.5487L7.66545 39.5912C7.6336 39.7186 7.60175 39.846 7.5699 39.9734L7.53805 40.1114ZM6.95411 39.1665C7.11336 39.3576 7.25139 39.5381 7.46373 39.7929C7.47435 39.7292 7.49558 39.6655 7.51681 39.5912C7.25139 39.3895 7.10275 39.2833 6.95411 39.1665Z" fill="#050505"/>
<path d="M10.0226 48L0 37.9774L14.142 23.8354L0.329131 10.0226L10.3517 0L24.1646 13.8129L37.6483 0.329131L40.7167 3.39748L40.5999 3.42933C40.4831 3.46118 40.3557 3.50365 40.2283 3.54612C40.1964 3.55674 40.1646 3.57797 40.1433 3.58859C40.069 3.64167 40.0478 3.71599 40.069 3.82216C40.1539 4.24685 40.8547 4.86264 41.3643 4.9582L41.4705 4.97943L41.4068 5.06437C41.3218 5.19177 41.6085 5.5209 41.8952 5.8288C42.15 6.10484 42.2774 6.25348 42.3305 6.34904C42.4154 6.31719 42.4897 6.28534 42.5746 6.25348C42.4791 6.1367 42.3835 6.01991 42.2668 5.91374C42.1181 5.75448 41.9589 5.59522 41.8421 5.40411C41.789 5.30856 41.7677 5.23424 41.7996 5.17054C41.8315 5.0856 41.9164 5.05375 41.9695 5.03252L42.0544 5.01128C42.1075 4.99005 42.15 4.97943 42.2243 4.9582L42.2668 4.94758L43.3603 6.04114L47.6709 10.3517L34.1871 23.8354L48 37.6483L37.9774 47.6709L24.1646 33.858L10.0226 48ZM0.201725 37.9774L10.0226 47.7983L24.1646 33.6563L37.9774 47.4691L47.7983 37.6483L33.9854 23.8354L47.4798 10.3517L42.2243 5.09622C42.1818 5.10683 42.1393 5.11745 42.0969 5.13869L42.0226 5.15992C41.9907 5.17054 41.9482 5.19177 41.9376 5.21301C41.9376 5.22362 41.927 5.25547 41.9695 5.32979C42.0756 5.51029 42.2137 5.65892 42.3729 5.81818C42.5003 5.9562 42.6384 6.09423 42.7445 6.25348L42.7976 6.3278L42.7127 6.35965C42.5853 6.40212 42.4579 6.45521 42.3305 6.50829L42.2668 6.54015L42.2455 6.47644C42.2137 6.39151 42.1075 6.25348 41.8102 5.93497C41.4386 5.53152 41.2369 5.27671 41.2687 5.0856C40.7273 4.93696 40.0478 4.31055 39.9522 3.85401C39.9098 3.64167 39.9947 3.5355 40.0796 3.4718C40.1221 3.43995 40.1752 3.41871 40.1964 3.41871C40.292 3.38686 40.3769 3.36563 40.4618 3.33378L37.6483 0.520239L24.1646 14.0146L10.3517 0.201725L0.520239 10.0226L14.3331 23.8354L0.201725 37.9774ZM8.6848 43.063L8.17518 42.5534C8.07963 42.426 8.00531 42.2774 7.96284 42.1075L7.55939 41.6934C7.57001 41.7147 7.58062 41.7359 7.60186 41.7571L7.49569 41.8421L7.02853 41.3749C6.9436 41.2475 6.87989 41.1095 6.83743 40.9608L6.50829 40.6317C6.52953 40.6636 6.55076 40.6954 6.572 40.7167L6.46583 40.8122L5.97744 40.3238C5.83942 40.1327 5.75448 39.9098 5.71201 39.6443L5.69078 39.5063C5.64831 39.2303 5.65893 38.9011 5.72263 38.5295L5.74386 38.3915L6.37027 39.0285L6.35965 39.0604C6.33842 39.1772 6.3278 39.294 6.31719 39.4001L8.34506 41.4386C7.65494 40.5999 6.85866 39.6337 5.78633 38.2853L5.7651 38.2641L5.77571 38.2323C5.79695 38.1261 5.8288 38.0199 5.86065 37.9031L5.8925 37.8076L5.97744 37.8713C6.50829 38.2641 7.08162 38.71 7.8142 39.2409C7.78235 39.209 7.7505 39.1772 7.71865 39.1559L7.68679 39.1241L7.69741 39.0816C7.73988 38.9648 7.78235 38.848 7.82482 38.7206L7.85667 38.6251L7.93099 38.6888C8.34506 39.0498 8.4937 39.0392 8.53616 39.0073C8.59987 38.9754 8.61048 38.8693 8.61048 38.7843C8.57863 38.2322 7.64433 37.2236 7.12409 37.075C7.0073 37.0431 6.93298 37.0537 6.89051 37.1068C6.83743 37.1812 6.75249 37.4041 7.17717 37.9244L7.19841 37.9562L7.18779 37.9987C7.14532 38.1155 7.10285 38.2323 7.06038 38.349L7.01792 38.4658L6.9436 38.3809C6.01991 37.351 6.16855 36.7671 6.23225 36.6078V36.5972C6.35965 36.3636 6.56138 36.2575 6.82681 36.2893C7.6868 36.3849 8.93961 37.7863 9.20504 38.7313C9.32183 39.1559 9.26875 39.5382 9.06702 39.708C8.96085 39.8036 8.74851 39.8673 8.39814 39.6868C8.54678 39.793 8.69542 39.9098 8.8653 40.0265L8.90776 40.0584L8.88653 40.1115C8.84406 40.2283 8.80159 40.3451 8.76974 40.4618L8.73789 40.5574L8.66357 40.4937C8.47246 40.3557 8.29197 40.207 8.10086 40.069C8.05839 40.207 8.02654 40.3451 8.00531 40.4725C8.19642 40.706 8.37691 40.929 8.56802 41.1626L8.58925 41.1838L8.57863 41.2157C8.5574 41.3218 8.54678 41.4174 8.53616 41.5129L8.52555 41.6403V41.6722C8.51493 41.7571 8.51493 41.8421 8.51493 41.927V42.0969L6.31719 39.8779C6.31719 39.9204 6.3278 39.9628 6.3278 40.0053L6.34904 40.1221L8.5574 42.3411V42.3623C8.58925 42.6065 8.67419 42.8188 8.79098 42.9781L8.6848 43.063ZM8.28135 42.4685L8.47246 42.6596C8.45123 42.5746 8.42999 42.4897 8.41938 42.4048L8.10086 42.0863C8.13271 42.2243 8.19642 42.3623 8.28135 42.4685ZM6.15793 39.5169L8.37691 41.7465C8.37691 41.7253 8.37691 41.704 8.37691 41.6828L6.16855 39.4638V39.432C6.17916 39.3258 6.18978 39.1984 6.21102 39.0816L5.8288 38.6994C5.78633 38.9861 5.78633 39.2515 5.81818 39.4744L6.16855 39.8248C6.16855 39.7823 6.16855 39.7399 6.16855 39.6974L6.15793 39.5169ZM6.96483 40.9396C7.0073 41.0776 7.06038 41.1944 7.12409 41.3006L7.30458 41.4811C7.30458 41.4705 7.29396 41.4492 7.29396 41.4386L7.24088 41.2263L6.96483 40.9396ZM5.90312 38.2216C6.95421 39.5382 7.72926 40.4937 8.40876 41.3112C8.41938 41.2794 8.41938 41.2369 8.42999 41.1944C8.23888 40.9608 8.04778 40.7379 7.86729 40.5043L7.84605 40.4831L7.85667 40.4512C7.88852 40.2814 7.94161 40.1009 7.99469 39.9098L8.02654 39.8142L8.11148 39.8779C8.30259 40.0159 8.48308 40.1646 8.67419 40.3026C8.69542 40.2283 8.71666 40.1646 8.74851 40.0902C7.53816 39.2196 6.68879 38.5932 5.94559 38.0305C5.93497 38.0942 5.91374 38.1579 5.90312 38.2216ZM5.88188 39.8461C5.92435 39.9947 5.98806 40.1221 6.06238 40.2283L6.24287 40.4088C6.23225 40.3875 6.23225 40.3663 6.22163 40.3451L6.16855 40.1327L5.88188 39.8461ZM7.8142 39.071C7.97346 39.2196 8.20703 39.4214 8.45123 39.5488C8.61048 39.6337 8.82283 39.6974 8.96085 39.5912C9.12011 39.4638 9.15196 39.1241 9.0564 38.7631C8.78036 37.7969 7.53816 36.5017 6.79496 36.4167C6.58261 36.3955 6.43397 36.4698 6.33842 36.6503C6.28534 36.7883 6.16855 37.2767 6.9436 38.1792C6.96483 38.1155 6.99668 38.0411 7.01792 37.9774C6.59323 37.4466 6.6357 37.1599 6.75249 37.0113C6.80557 36.937 6.91174 36.8626 7.1347 36.9263C7.70803 37.0962 8.67419 38.1367 8.71665 38.7631C8.71665 38.848 8.71665 39.0498 8.56802 39.1241C8.41938 39.1984 8.19642 39.1029 7.88852 38.848C7.86729 38.933 7.84605 38.9967 7.8142 39.071ZM9.57664 38.4764L6.75249 35.6417L6.77372 35.5992C6.84804 35.4612 6.92236 35.3125 6.99668 35.1745L7.03915 35.0896L9.8633 37.9244L9.84207 37.9668C9.76775 38.1155 9.69343 38.2535 9.61911 38.3915L9.57664 38.4764ZM6.92236 35.6098L9.53417 38.2429C9.58726 38.1473 9.62973 38.0411 9.68281 37.9456L7.071 35.3125C7.02853 35.4081 6.97545 35.5036 6.92236 35.6098ZM9.77837 37.2024C9.71466 37.2024 9.64034 37.1918 9.57664 37.1812C8.64233 36.9688 7.60186 35.4506 7.5063 34.8242C7.4426 34.3782 7.59124 34.1022 7.66556 33.9748C7.83543 33.6881 8.01593 33.3908 8.20703 33.0936L8.2495 33.0192L11.063 35.854L11.0312 35.8965C10.8401 36.1938 10.6596 36.491 10.4897 36.7777C10.3092 37.0537 10.065 37.2024 9.77837 37.2024ZM7.78235 34.0385C7.71865 34.1553 7.58062 34.3995 7.64433 34.8029C7.72926 35.3869 8.73789 36.852 9.59788 37.0431C9.91639 37.1175 10.1818 37.0007 10.3835 36.7034C10.5428 36.438 10.7127 36.1513 10.8932 35.8646L8.27074 33.2316C8.10086 33.5076 7.93099 33.7837 7.78235 34.0385ZM11.1904 35.6523L8.37691 32.8175L8.40876 32.7751C8.51493 32.6158 8.61048 32.4565 8.72727 32.2867L8.76974 32.2123L10.3942 33.8474C10.1606 33.2953 9.7996 32.4459 9.37492 31.3736L9.3643 31.3417L9.38553 31.3099C9.51294 31.1294 9.64034 30.9489 9.76775 30.7684L9.82084 30.6941C9.95886 30.4924 10.1075 30.2906 10.2561 30.0889L10.288 30.0464L10.3623 30.0677C10.7551 30.1951 11.1267 30.3225 11.7213 30.5136C11.5302 30.004 11.3922 29.6536 11.1374 28.9529L11.1267 28.921L11.148 28.8892C11.3179 28.6768 11.4771 28.4539 11.6576 28.2309L11.7425 28.1248L11.785 28.2522C12.0398 29.006 12.284 29.7279 12.6875 30.8746L13.781 31.9681L13.7492 32.0212C13.6111 32.2017 13.4731 32.3928 13.3351 32.5733L13.282 32.637L12.1885 31.5435C11.509 31.3311 10.9038 31.14 9.94824 30.8215L12.6344 33.5289L12.6025 33.5819C12.4751 33.7518 12.3583 33.9217 12.2415 34.0916L12.1885 34.1553L10.5534 32.5096C10.787 33.0936 11.1267 33.9323 11.5833 35.0046L11.5939 35.0365L11.5727 35.0683C11.4665 35.2382 11.3497 35.4081 11.2435 35.5674L11.1904 35.6523ZM8.54678 32.8069L11.1586 35.4399C11.2435 35.3125 11.3285 35.1745 11.4134 35.0365C10.8719 33.7731 10.5003 32.8281 10.2668 32.2654L10.1393 31.9469L10.3835 32.1805L12.146 33.9535C12.2415 33.8261 12.3265 33.6881 12.422 33.5501L9.81022 30.9171C9.70405 31.0657 9.59788 31.2143 9.50232 31.363C10.0226 32.6583 10.4366 33.6138 10.649 34.134L10.787 34.4738L8.76974 32.4459C8.70604 32.5627 8.6211 32.6795 8.54678 32.8069ZM9.96948 30.7047C10.9356 31.0232 11.5408 31.2143 12.2203 31.4267H12.2415L13.2395 32.4353C13.3457 32.2867 13.4519 32.1486 13.5687 32L12.5388 30.9489C12.146 29.8447 11.9124 29.144 11.6682 28.4326C11.5302 28.6025 11.4028 28.783 11.2648 28.9529C11.5302 29.6749 11.6682 30.0252 11.8699 30.5773L11.9336 30.7366L11.7956 30.6941C11.1374 30.4818 10.7339 30.3437 10.3198 30.2163C10.2031 30.3862 10.0863 30.5455 9.96948 30.7047ZM14.1951 30.8321C14.1845 30.8321 14.1632 30.8321 14.1526 30.8321C13.5793 30.8003 13.2183 30.2376 13.1758 30.1739C12.8467 29.643 13.1015 29.0378 13.3457 28.4645C13.4731 28.1672 13.6111 27.8593 13.5156 27.6894C13.4837 27.6257 13.4094 27.5833 13.3033 27.562C13.1971 27.5408 13.0697 27.6045 12.9529 27.7213C12.7936 27.8912 12.7087 28.1248 12.7512 28.2946C12.783 28.422 12.8255 28.4857 12.9104 28.6025L12.9423 28.645L12.9104 28.6875C12.7618 28.868 12.6238 29.0591 12.4751 29.2395L12.422 29.3033L12.3689 29.2395C11.647 28.4326 11.9443 27.7107 12.3052 27.2541C12.8255 26.649 13.3033 26.6277 13.6005 26.7233C14.0465 26.8613 14.3756 27.3285 14.418 27.6894C14.4605 28.0292 14.3331 28.3583 14.1632 28.7618C13.9721 29.2289 13.8553 29.5156 13.8766 29.6536C13.8978 29.7598 14.004 29.9084 14.142 29.9509C14.2906 29.9934 14.4605 29.9084 14.6198 29.7173C15.0445 29.1865 14.7366 28.8361 14.6092 28.6768L14.5667 28.6344L14.6092 28.5919C14.7684 28.3902 14.9383 28.1991 15.0975 27.9973L15.1506 27.9336L15.2037 27.9973C15.8726 28.7512 15.6815 29.4731 15.5116 29.8341C15.2568 30.3968 14.6729 30.8321 14.1951 30.8321ZM13.2714 27.424C13.2926 27.424 13.3245 27.424 13.3457 27.4346C13.4944 27.4665 13.6005 27.5302 13.6536 27.6364C13.7704 27.8593 13.6218 28.1991 13.4837 28.5282C13.2502 29.0697 13.006 29.6324 13.3033 30.1102C13.3351 30.1632 13.6642 30.6729 14.1632 30.6941C14.5985 30.7153 15.1506 30.3013 15.4054 29.7704C15.5647 29.4519 15.7346 28.8149 15.1825 28.146C15.0445 28.3052 14.9171 28.4751 14.779 28.6344C14.9277 28.8149 15.2143 29.2395 14.7578 29.8023C14.5136 30.1102 14.28 30.1314 14.142 30.0889C13.9297 30.0358 13.7916 29.8341 13.7704 29.6855C13.7386 29.505 13.8447 29.2395 14.0571 28.7193C14.2163 28.3265 14.3437 28.0186 14.3013 27.7107C14.2588 27.3922 13.9721 26.9887 13.5793 26.8613C13.2077 26.7445 12.8042 26.9144 12.4326 27.3497C12.1035 27.7532 11.8487 28.3796 12.4326 29.0909C12.5494 28.9423 12.6662 28.7936 12.7724 28.6556C12.6981 28.5601 12.6556 28.4751 12.6238 28.3371C12.5601 28.0929 12.6981 27.8062 12.8573 27.6364C12.9847 27.4877 13.1334 27.424 13.2714 27.424ZM17.0511 27.9018L14.2376 25.067L14.28 25.0139C14.4499 24.8122 14.6198 24.6211 14.7896 24.4194L14.8427 24.3663L16.5309 26.065C16.3716 25.4599 16.1274 24.5362 15.8089 23.3152L15.7983 23.2833L15.8195 23.2515C16.0106 23.0392 16.2017 22.8268 16.4035 22.6145L16.4565 22.5614L19.2701 25.3962L19.2276 25.4492C19.0471 25.651 18.856 25.8527 18.6755 26.0544L18.6224 26.1075L16.9237 24.3981C17.0723 25.0033 17.3165 25.9589 17.6457 27.1586L17.6563 27.1904L17.635 27.2223C17.4545 27.424 17.2741 27.6364 17.1042 27.8381L17.0511 27.9018ZM14.4287 25.067L17.0511 27.7001C17.1997 27.5196 17.359 27.3497 17.5076 27.1692C17.136 25.7996 16.8706 24.7591 16.7326 24.1964L16.6689 23.9522L18.6224 25.9164C18.7711 25.7465 18.9303 25.5766 19.079 25.4068L16.4565 22.7631C16.2867 22.9542 16.1168 23.1347 15.9575 23.3258C16.3079 24.7167 16.5733 25.6934 16.7326 26.288L16.7963 26.5428L14.8427 24.5786C14.7047 24.7379 14.5667 24.9078 14.4287 25.067ZM19.493 25.152L17.9217 23.57L17.9642 23.5169C18.3358 23.1135 18.718 22.6994 19.1002 22.296L19.1533 22.2429L19.6948 22.7843L19.6523 22.8374C19.4612 23.0392 19.2807 23.2303 19.1002 23.432C19.4506 23.6974 19.7478 23.6337 19.9496 23.5275C20.2999 23.347 20.5441 22.9011 20.5123 22.5295C20.4698 22.0836 19.9814 21.4253 19.4187 21.2449C19.0471 21.1281 18.6967 21.2449 18.4207 21.5846C18.1659 21.8925 18.1447 22.2004 18.3358 22.5295L18.3676 22.572L18.3358 22.6145C18.1447 22.8162 17.9536 23.0285 17.7624 23.2303L17.6987 23.294L17.6457 23.2196C16.8706 22.1155 17.6138 21.1918 17.858 20.937C18.5163 20.2999 19.2807 20.1194 20.0239 20.4167C20.8096 20.7352 21.4147 21.5846 21.436 22.3809C21.4466 22.795 21.2555 23.4426 20.8096 23.8885C20.5123 24.1752 20.1513 24.3344 19.7478 24.3451L19.9602 24.653L19.9177 24.6954C19.7903 24.8334 19.6735 24.9608 19.5461 25.0989L19.493 25.152ZM18.1128 23.57L19.4824 24.9502C19.578 24.8441 19.6735 24.7485 19.7691 24.6423L19.4718 24.1964L19.6098 24.207C20.0345 24.2283 20.3955 24.0902 20.7034 23.793C21.1175 23.3789 21.2979 22.7737 21.2873 22.3915C21.2661 21.6377 20.6928 20.852 19.9602 20.5547C19.2807 20.2787 18.5587 20.4486 17.9429 21.0431C17.72 21.2767 17.0723 22.0942 17.6987 23.0816C17.858 22.9117 18.0173 22.7419 18.1765 22.572C17.9748 22.211 18.0173 21.85 18.2933 21.5103C18.6967 21.0325 19.1321 21.0325 19.4399 21.1281C20.0664 21.3192 20.5866 22.0305 20.6397 22.5295C20.6821 22.9648 20.3955 23.4638 20.0027 23.6656C19.6523 23.8461 19.2807 23.793 18.9409 23.5063L18.8879 23.4638L18.9409 23.4107C19.1214 23.209 19.3125 23.0073 19.5036 22.8056L19.1639 22.4552C18.8029 22.8162 18.4526 23.1984 18.1128 23.57ZM22.3172 22.1579L19.5036 19.3232L19.5567 19.2701C19.7691 19.0577 19.9814 18.8348 20.2044 18.6224L20.2575 18.5693L23.071 21.4041L23.0179 21.4572C22.8056 21.6695 22.5826 21.8925 22.3703 22.1048L22.3172 22.1579ZM19.7054 19.3232L22.3278 21.9562C22.5083 21.7757 22.6888 21.5846 22.8693 21.4041L20.2468 18.7711C20.0664 18.9622 19.8859 19.1427 19.7054 19.3232ZM23.1559 20.6715C23.1241 20.6715 23.0816 20.6715 23.0498 20.6609C22.5826 20.6078 22.2535 20.2468 22.1579 20.0239C21.9031 19.493 22.1792 18.9834 22.6676 18.219C22.848 17.9429 23.0604 17.5926 22.9861 17.4227C22.9542 17.359 22.8905 17.3165 22.7737 17.3059C22.6357 17.2847 22.4446 17.3696 22.2747 17.5395C22.0836 17.72 21.9668 17.9429 21.9881 18.1022C21.9987 18.2402 22.0518 18.3145 22.1261 18.4101L22.1579 18.4632L22.1155 18.5056C21.9137 18.7074 21.712 18.9091 21.5103 19.1108L21.4572 19.1639L21.4041 19.1108C20.7034 18.2933 21.1599 17.5289 21.6695 17.0299C22.4658 16.2973 23.071 16.4035 23.3577 16.5202C23.7823 16.7007 24.0159 17.1254 24.0159 17.4333C24.0159 17.7837 23.8142 18.134 23.57 18.5375C23.2515 19.079 23.0922 19.3444 23.0922 19.4824C23.0922 19.5886 23.1772 19.6948 23.2833 19.7372C23.4745 19.8115 23.7293 19.716 23.9735 19.4824C24.5468 18.9197 24.2601 18.58 24.1221 18.4207L24.0796 18.3676L24.1221 18.3251C24.3344 18.1234 24.5468 17.9217 24.7591 17.72L24.8122 17.6669L24.8653 17.72C25.3006 18.219 25.3749 18.8135 25.0776 19.3975C24.6636 20.1407 23.7505 20.6715 23.1559 20.6715ZM22.7206 17.1573C22.7419 17.1573 22.7631 17.1573 22.7843 17.1679C22.9436 17.1997 23.0604 17.2634 23.1029 17.3696C23.209 17.6032 22.9861 17.9642 22.7737 18.3039C22.3172 19.0365 22.0518 19.5037 22.2747 19.9708C22.3597 20.1619 22.6569 20.4804 23.0604 20.5229C23.5806 20.5866 24.5362 20.0664 24.929 19.3125C25.1201 18.9516 25.2475 18.4101 24.791 17.8474C24.6105 18.0173 24.43 18.1871 24.2601 18.357C24.4194 18.5481 24.6742 18.9622 24.0584 19.5567C23.6549 19.9496 23.3364 19.8859 23.2196 19.8434C23.0498 19.7797 22.9436 19.6311 22.933 19.4612C22.9224 19.2913 23.071 19.0365 23.432 18.4419C23.6656 18.0597 23.8567 17.72 23.8567 17.4121C23.8567 17.1466 23.6549 16.7857 23.2833 16.6264C22.8374 16.4353 22.296 16.6052 21.7439 17.1042C21.2873 17.5501 20.8733 18.219 21.436 18.9303C21.6058 18.7605 21.7757 18.5906 21.9456 18.4207C21.8819 18.3358 21.8394 18.2402 21.8182 18.0916C21.7863 17.8474 21.9668 17.582 22.1473 17.4121C22.349 17.2528 22.5508 17.1573 22.7206 17.1573ZM25.9482 18.718L25.3537 18.1128L25.4068 18.0597C25.5979 17.8792 25.7784 17.7094 25.9589 17.5289C26.2668 17.2316 26.5959 16.9237 26.9144 16.6264L26.3623 16.0637C25.9058 16.4778 25.4492 16.9025 24.9927 17.3378L24.9396 17.3802L24.3769 16.8069L24.43 16.7538C24.8865 16.3291 25.3431 15.8938 25.7996 15.4798L25.3112 14.9808C24.8122 15.4373 24.3132 15.9044 23.8142 16.3716L23.7611 16.4141L23.1772 15.8195L23.2303 15.7664C23.9628 15.0763 24.8016 14.3013 25.5342 13.643L25.5873 13.6005L28.3583 16.361L28.3052 16.4141C27.8806 16.7963 27.4346 17.2422 26.9887 17.6881C26.6702 18.0066 26.3411 18.3358 26.0226 18.633L25.9482 18.718ZM25.5554 18.1234L25.9589 18.5269C26.2561 18.2402 26.564 17.9323 26.8719 17.635C27.2966 17.2104 27.7319 16.775 28.1354 16.4141L25.566 13.8447C24.8653 14.4711 24.069 15.2037 23.3683 15.8726L23.7611 16.2654C24.2601 15.7983 24.7591 15.3311 25.2581 14.8746L25.3112 14.8321L26.0013 15.5222L25.9482 15.5753C25.4917 15.9894 25.0352 16.4141 24.5786 16.8494L24.9502 17.221C25.4068 16.7857 25.8633 16.361 26.3198 15.9469L26.3729 15.9044L27.1267 16.6583L27.0737 16.7113C26.7339 17.0192 26.3942 17.3484 26.0756 17.6563C25.8845 17.8049 25.7253 17.9642 25.5554 18.1234ZM28.4751 15.5753C28.1672 15.5753 27.8593 15.4904 27.5727 15.3311C26.7551 14.864 26.2774 13.9084 26.3623 13.3245C26.4366 12.7724 26.6702 12.5707 26.8188 12.4326L26.9463 12.3159C27.1161 12.1778 27.2966 12.008 27.4771 11.8487C27.7107 11.6364 27.9655 11.4134 28.1778 11.2329L28.2309 11.1904L31.0445 14.0252L30.9914 14.0783C30.6198 14.3968 30.2376 14.7153 29.8553 15.0445C29.4094 15.3948 28.9423 15.5753 28.4751 15.5753ZM26.9356 12.5176L26.9144 12.5388C26.7658 12.6662 26.5747 12.8467 26.5003 13.3457C26.426 13.8766 26.9038 14.7896 27.647 15.2037C28.1248 15.4691 28.8786 15.639 29.7598 14.9277C30.1208 14.6198 30.4818 14.3119 30.8427 14.004L28.2203 11.3709C28.0186 11.5408 27.7956 11.7425 27.5727 11.9443C27.3922 12.1141 27.2117 12.2734 27.0418 12.4114L26.9356 12.5176ZM31.9469 13.3245L31.3524 12.7193L31.4161 12.6662C31.8832 12.284 32.361 11.9124 32.8175 11.5514L32.2442 10.9781C31.8301 11.3072 31.4054 11.6364 30.9808 11.9867L30.9277 12.0292L30.3543 11.4559L30.418 11.4028C30.8427 11.063 31.2674 10.7233 31.6709 10.4048L31.1825 9.90577C30.7259 10.2561 30.2588 10.6277 29.7916 11.01L29.7386 11.0524L29.1546 10.4579L29.2183 10.4048C29.8978 9.85269 30.5773 9.32183 31.225 8.82283L31.3099 8.75912C31.5116 8.61048 31.7027 8.46184 31.9044 8.3132L31.9469 8.28135L31.9894 8.30259C32.6264 8.67419 33.3271 9.09887 34.2508 9.65096C34.0066 9.21566 33.5607 8.45123 33.0405 7.55939L33.0086 7.5063L33.0617 7.47445C33.2528 7.33643 33.4439 7.20902 33.6244 7.071L33.6881 7.02853L33.6987 7.01792C33.8792 6.89051 34.0597 6.77372 34.2296 6.64632L34.3358 6.572C34.994 6.12608 35.6311 5.72263 36.2256 5.36165L36.2681 5.32979L36.8733 5.94559L36.7989 5.98806C36.6078 6.10484 36.4061 6.23225 36.2044 6.35965L38.4127 8.59987L38.3384 8.64234C38.1685 8.74851 37.9987 8.85468 37.8288 8.97147L37.7863 9.00332L35.578 6.78434C35.3656 6.92236 35.1427 7.071 34.9197 7.21964L34.8772 7.24088L37.0856 9.45985L37.0113 9.50232C36.8308 9.61911 36.6609 9.74652 36.4804 9.87392L36.4273 9.90577L33.8049 7.26211C34.357 8.21765 34.8879 9.13072 35.6098 10.4048L35.6417 10.4579L35.5886 10.4897C35.3762 10.6384 35.1745 10.7976 34.9622 10.9462L34.9303 10.9781L34.8879 10.9569C33.7731 10.2986 32.8388 9.75713 31.4267 8.93961L34.081 11.6151L34.0173 11.6682C33.3484 12.1778 32.6689 12.7193 31.9788 13.2714L31.9469 13.3245ZM31.5541 12.7299L31.9575 13.1334C32.6052 12.6025 33.2528 12.0929 33.8792 11.6151L31.2568 8.98208C30.641 9.45985 29.9934 9.95886 29.3563 10.4791L29.7492 10.8719C30.2163 10.4897 30.6835 10.1181 31.14 9.76775L31.1931 9.72528L31.8832 10.4154L31.8195 10.4685C31.4054 10.787 30.9914 11.1267 30.5667 11.4665L30.9383 11.8381C31.363 11.4983 31.7877 11.1586 32.2123 10.8295L32.2654 10.787L33.0299 11.562L32.9662 11.6151C32.499 11.9761 32.0212 12.3477 31.5541 12.7299ZM31.4798 8.82283C32.8812 9.62973 33.8155 10.1818 34.9303 10.8295C35.1108 10.6914 35.2913 10.564 35.4718 10.4366C34.7392 9.15196 34.2084 8.22827 33.635 7.25149C33.4864 7.35766 33.3378 7.46384 33.1785 7.57001C33.7837 8.61048 34.2721 9.47047 34.4738 9.82084L34.6224 10.0863L34.3889 9.94824C33.3802 9.34307 32.6158 8.88653 31.9363 8.48308C31.7877 8.57863 31.6284 8.69542 31.4798 8.82283ZM33.8368 7.10285L36.4486 9.7359C36.5866 9.64034 36.7246 9.54479 36.8626 9.44924L34.2508 6.81619C34.1128 6.90113 33.9748 6.99668 33.8368 7.10285ZM35.5992 6.60385L37.8076 8.82283C37.935 8.73789 38.0624 8.65295 38.1898 8.57863L35.9814 6.35965L36.0557 6.31719C36.2575 6.18978 36.4592 6.06238 36.6503 5.94559L36.2468 5.54214C35.6841 5.88188 35.0896 6.2641 34.4738 6.67817L34.8772 7.09224C35.1002 6.9436 35.3232 6.79496 35.5355 6.65693L35.5992 6.60385ZM38.4871 8.56802L38.4552 8.50431C37.8713 7.49569 37.3298 6.55076 36.5654 5.26609L36.5335 5.20239L36.5972 5.17054C36.7565 5.07498 36.9157 4.97943 37.075 4.89449L37.1068 4.87326L37.1387 4.89449C38.2535 5.62707 39.2303 6.2641 40.6317 7.21964L40.6742 7.25149L40.0902 6.66755L40.1752 6.62508C40.5043 6.45521 40.8122 6.30657 41.1201 6.16855L40.5574 5.60584C40.2814 5.73324 39.9841 5.87127 39.6762 6.03052L39.6337 6.05176L39.0604 5.47843L39.1453 5.43597C39.432 5.28733 39.708 5.1493 39.9841 5.03252L39.4957 4.54413C39.1878 4.68215 38.8693 4.84141 38.5295 5.01128L38.4871 5.03252L37.8925 4.43796L37.9774 4.39549C38.4764 4.14068 38.9436 3.91772 39.3789 3.73723L39.4214 3.71599L42.2455 6.56138L42.15 6.60385C41.7147 6.78434 41.2369 7.0073 40.7379 7.26211L40.6954 7.28334L40.7167 7.29396L40.6105 7.34705C40.4618 7.42137 40.3132 7.5063 40.1539 7.59124L40.1221 7.61247L40.0902 7.59124C39.8461 7.42137 39.6019 7.26211 39.347 7.09224C39.1241 7.21964 38.8905 7.34705 38.6569 7.48507C38.795 7.69741 38.9224 7.92037 39.0498 8.13271L39.0816 8.19642L39.0179 8.22827C38.848 8.32382 38.6782 8.42999 38.5083 8.53616L38.4871 8.56802ZM36.7246 5.25547C37.4572 6.48706 37.9774 7.40013 38.5401 8.37691C38.6675 8.29197 38.8056 8.21765 38.933 8.14333C38.8056 7.93099 38.6675 7.70803 38.5295 7.49569L38.4977 7.43198L38.5614 7.40013C38.8268 7.24088 39.0922 7.09224 39.347 6.95421L39.3895 6.93298L39.4214 6.95421C39.6656 7.12409 39.9098 7.28334 40.1646 7.45322C40.2707 7.40013 40.3769 7.33643 40.4725 7.28334C39.1347 6.38089 38.1898 5.75448 37.1068 5.05375C36.9794 5.10683 36.852 5.18115 36.7246 5.25547ZM40.3344 6.71002L40.7273 7.11347C41.1732 6.87989 41.6085 6.67817 42.0119 6.50829L39.4001 3.88587C39.0073 4.05574 38.5826 4.24685 38.1367 4.48042L38.5189 4.87326C38.8587 4.70338 39.1772 4.54413 39.4851 4.4061L39.5275 4.38487L40.2283 5.0856L40.1327 5.12807C39.8673 5.24486 39.5806 5.38288 39.294 5.5209L39.6549 5.8925C39.9628 5.73324 40.2601 5.59522 40.5362 5.46782L40.5786 5.44658L41.3537 6.22163L41.2581 6.2641C40.9821 6.39151 40.6636 6.54015 40.3344 6.71002Z" fill="#050505"/>
<path d="M14.7791 10.1607L13.006 19.7055L9.45989 16.1594L10.7976 10.2988L9.0989 10.3412L6.35969 13.0592L3.56738 10.2669L12.8255 1.00879L15.6284 3.82233L13.7386 5.68032C12.8574 6.56154 13.1122 6.27488 12.284 7.06055L18.219 6.4129L21.7333 9.92717L14.7791 10.1607Z" fill="#050505"/>
<path d="M20.6822 27.3818L13.728 20.4276L22.9862 11.1694L25.8316 14.0148L18.9941 20.8522L23.103 24.9611L20.6822 27.3818Z" fill="#050505"/>
<path d="M45.0485 33.232C47.8832 36.0668 48 39.6129 45.1122 42.5007C42.0332 45.5797 38.7631 45.4629 35.7372 42.437L31.6497 38.3494L40.9078 29.0913L45.0485 33.232ZM36.7777 38.7954L37.8925 39.9102C39.2834 41.301 40.8441 41.1205 42.2349 39.7297C43.8062 38.1583 43.6682 36.5021 42.2137 35.0475L41.3643 34.1981L36.7777 38.7954Z" fill="#050505"/>
<path d="M7.96298 41.8848C7.84619 41.8848 7.55953 41.8848 9.22642 43.5198C10.9039 45.1548 10.9252 44.7408 10.9145 44.6452C10.8933 44.4647 10.6491 44.1356 10.1926 43.6366C10.1076 43.6472 10.0121 43.6472 9.93776 43.6472C10.3624 44.1037 10.3625 44.1887 10.3306 44.2418C10.2669 44.2524 10.1395 44.263 9.40691 43.5729C9.39629 43.5623 8.31335 42.5324 8.39828 42.405C8.39828 42.405 8.51507 42.2882 9.16272 42.8828C9.24765 42.8828 9.33259 42.8828 9.41753 42.8722C8.61062 42.0971 8.09039 41.8954 7.96298 41.8848Z" fill="#050505"/>
<path d="M10.1396 43.1373L9.38578 42.3835C9.48133 42.3622 9.5875 42.3516 9.68306 42.3198C9.85293 42.2879 10.0016 42.341 10.2033 42.5215C10.2033 42.5215 10.6386 42.8931 10.5218 43.0311C10.49 43.063 10.4475 43.0736 10.4156 43.0842C10.3307 43.1054 10.2351 43.1161 10.1396 43.1373ZM9.31146 41.8314C9.06726 41.8845 8.8443 41.9269 8.64258 41.9482L11.3606 44.6768C11.4561 44.6661 11.5517 44.6555 11.6472 44.6343L10.5855 43.562C10.6704 43.5514 10.766 43.5301 10.8509 43.5089C10.9253 43.4983 11.0527 43.477 11.2756 43.6363C11.6366 43.8911 11.902 44.2415 12.2524 44.4963C12.3692 44.4644 12.486 44.4326 12.6028 44.3901C12.486 44.3264 12.3373 44.199 12.0082 43.8805C11.5729 43.4664 11.2862 43.2328 11.0314 43.201C11.1058 42.8294 9.9591 41.6934 9.31146 41.8314Z" fill="#050505"/>
<path d="M11.2968 41.1099C10.8402 41.3222 10.4049 41.4921 10.0015 41.6301L12.7194 44.3587C13.1229 44.2207 13.5582 44.0508 14.0254 43.8385L13.5263 43.3395C13.1972 43.4881 12.8787 43.6261 12.5708 43.7429L11.9019 43.074C12.178 42.9679 12.4646 42.8511 12.7619 42.7237L12.2948 42.2565C11.9975 42.3945 11.7108 42.5113 11.4348 42.6069L10.8402 42.0123C11.1375 41.9061 11.4454 41.7681 11.7745 41.6195L11.2968 41.1099Z" fill="#050505"/>
<path d="M13.7707 42.4048C13.4203 41.874 13.3778 41.7997 13.0275 41.2476C13.4521 41.5449 13.8768 41.8315 14.3015 42.1288C14.121 42.2244 13.9511 42.3199 13.7707 42.4048ZM12.5922 40.4619C12.4435 40.5469 12.2843 40.6212 12.1462 40.6955C12.762 41.6616 13.3354 42.5535 14.1423 43.7851C14.2803 43.7214 14.4183 43.6577 14.5669 43.5833C14.4183 43.3498 14.2697 43.1268 14.121 42.8932C14.3652 42.7764 14.6094 42.649 14.8642 42.511C15.119 42.6809 15.3738 42.8614 15.6287 43.0313C15.7879 42.9463 15.9472 42.8508 16.1064 42.7552C15.1509 42.15 14.0679 41.4493 12.5922 40.4619Z" fill="#050505"/>
<path d="M14.7474 39.188C14.121 39.5914 13.5158 39.9524 12.9531 40.2603L13.4627 40.7699C13.6751 40.6532 13.8874 40.5364 14.0998 40.409L16.3081 42.6279C16.4674 42.5324 16.6267 42.4368 16.7859 42.3413L14.5775 40.1223C14.8005 39.9843 15.0235 39.8462 15.257 39.6976L14.7474 39.188Z" fill="#050505"/>
<path d="M15.3631 38.7847C15.1933 38.9015 15.0234 39.0076 14.8535 39.1138L17.5715 41.8424C17.7414 41.7362 17.9112 41.6194 18.0811 41.5133L15.3631 38.7847Z" fill="#050505"/>
<path d="M17.667 37.1919C17.4759 37.3299 17.2848 37.4679 17.0937 37.606C17.4759 38.2748 17.8475 38.9119 18.442 39.9205C17.9855 39.6338 17.1467 39.1136 15.9895 38.381C15.809 38.5084 15.6285 38.6252 15.448 38.742C16.6053 39.4746 17.5077 40.0479 18.9516 40.9504C19.1534 40.8123 19.3551 40.6743 19.5568 40.5257C18.9304 39.4533 18.4314 38.5615 17.667 37.1919Z" fill="#050505"/>
<path d="M19.695 35.6416C19.0261 36.1618 18.3785 36.6608 17.7415 37.128L20.4594 39.8566C21.1071 39.3894 21.7653 38.8798 22.4448 38.349L21.9458 37.85C21.4681 38.2322 20.9903 38.5932 20.5231 38.9435L19.8543 38.2746C20.2789 37.9561 20.7036 37.6376 21.1389 37.2979L20.6718 36.8307C20.2365 37.1705 19.8118 37.4996 19.3871 37.8075L18.7925 37.2129C19.2491 36.8732 19.7162 36.5122 20.194 36.1406L19.695 35.6416Z" fill="#050505"/>
<path d="M23.7188 36.4273L21.9988 34.6967C22.1475 34.5799 22.2961 34.4525 22.4448 34.3251C23.6233 33.4227 24.6 34.9091 24.5576 35.4081C24.5363 35.7266 24.2921 35.9389 24.1647 36.0557C24.0161 36.1831 23.8674 36.3105 23.7188 36.4273ZM22.0201 33.7624C21.6485 34.0809 21.2769 34.3782 20.9053 34.6861L23.6233 37.4147C23.9949 37.1174 24.3665 36.8095 24.7381 36.491C26.3943 34.9834 24.3983 33.3271 23.3791 33.2528C22.6996 33.221 22.2006 33.6138 22.0201 33.7624Z" fill="#050505"/>
<path d="M25.7891 30.4502C25.0671 31.1191 24.3451 31.7561 23.6338 32.3825L26.3518 35.1111C27.0737 34.4847 27.7957 33.8264 28.5389 33.1576L28.0399 32.6586C27.5197 33.1363 26.9994 33.6141 26.4792 34.0706L25.8103 33.4018C26.2775 32.9877 26.7446 32.563 27.2224 32.1383L26.7552 31.6712C26.2881 32.1065 25.8103 32.5205 25.3431 32.9346L24.7486 32.34C25.2582 31.8941 25.7678 31.427 26.2775 30.9598L25.7891 30.4502Z" fill="#050505"/>
<path d="M36.6929 18.9622C35.663 20.2893 36.6929 21.2024 37.2981 21.1493C37.5741 21.1281 37.8183 20.9688 38.2642 20.6821C38.6146 20.4592 38.8482 20.3105 38.9756 20.3212C39.241 20.3424 39.5595 20.7671 39.1242 21.2873C38.6358 21.8819 38.243 21.5315 38.0837 21.3935C37.9139 21.5952 37.744 21.7969 37.5635 21.9987C38.8375 23.1453 40.0054 21.4678 39.9948 20.6609C39.9842 19.992 39.4321 19.6204 39.4215 19.6098C38.9119 19.2807 38.519 19.5249 37.8608 19.9708C37.5104 20.215 37.0645 20.5123 36.9371 19.992C36.8628 19.6735 37.2662 19.1002 37.6909 19.1851C37.7971 19.2064 37.9139 19.3019 37.9563 19.3338C38.1156 19.1427 38.2642 18.9515 38.4129 18.7711C37.8183 18.2508 37.2344 18.3039 36.6929 18.9622Z" fill="#050505"/>
<path d="M39.4322 15.5967C39.2835 15.7984 39.1243 16.0107 38.965 16.2231C39.1668 16.7752 39.326 17.2211 39.5808 17.9324C38.9544 17.7413 38.7208 17.667 38.0095 17.4547C37.829 17.6776 37.6485 17.9006 37.468 18.1236C38.1581 18.304 38.8695 18.4952 39.9312 18.7924L40.9929 19.8541C41.1415 19.663 41.2902 19.4719 41.4388 19.2808L40.3983 18.2297C40.1117 17.4759 39.8569 16.7539 39.4322 15.5967Z" fill="#050505"/>
<path d="M41.0352 13.3779C40.9184 13.5478 40.8017 13.7177 40.6849 13.8876L42.5004 15.7137C42.0332 15.5544 41.1626 15.2678 39.9629 14.8962C39.8249 15.0873 39.6869 15.2678 39.5488 15.4589L42.2668 18.1875C42.4048 18.007 42.5322 17.8265 42.6596 17.6566L40.8441 15.8199C41.3644 15.9791 42.235 16.2552 43.3922 16.6374C43.5196 16.4569 43.6364 16.287 43.7532 16.1171L41.0352 13.3779Z" fill="#050505"/>
<path d="M43.8063 14.7896L42.0863 13.059C42.1606 12.9316 42.2456 12.8148 42.3199 12.6981C42.9357 11.8381 44.1036 13.3563 44.1673 13.8978C44.1991 14.1526 44.1142 14.3119 44.0399 14.4286C43.9655 14.5454 43.8806 14.6622 43.8063 14.7896ZM41.8527 12.1354C41.6616 12.4432 41.4599 12.7511 41.2476 13.059L43.9656 15.7876C44.1779 15.4691 44.3796 15.1612 44.5707 14.8639C45.3989 13.3776 43.1162 11.4665 42.3411 11.7213C42.0757 11.7956 41.9058 12.0504 41.8527 12.1354Z" fill="#050505"/>
<path d="M42.872 10.4155C42.7871 10.5642 42.7021 10.7128 42.6172 10.8721L45.3352 13.6007C45.4201 13.4414 45.5051 13.2928 45.59 13.1441L42.872 10.4155Z" fill="#050505"/>
<path d="M43.403 9.21566C42.8721 10.564 45.1442 12.6768 45.9511 12.3689C45.9617 12.3689 47.034 11.9018 45.4946 10.1606C45.4415 10.288 45.3884 10.4154 45.3247 10.5428C46.1316 11.4877 45.6432 11.7425 45.4521 11.7319C44.762 11.6682 43.4561 10.0438 43.9763 9.62972C44.1674 9.48108 44.4647 9.71466 44.5709 9.7996C44.6346 9.67219 44.6877 9.54479 44.7407 9.41738C43.8064 8.58925 43.4773 9.04578 43.403 9.21566Z" fill="#050505"/>
<path d="M45.7069 9.64053C45.399 9.22646 45.0805 8.82301 44.7726 8.40894C45.1336 8.68499 45.3459 8.84424 45.8556 9.21584C45.8131 9.35386 45.76 9.5025 45.7069 9.64053ZM44.1674 7.55957C44.125 7.67636 44.0931 7.79315 44.04 7.92055C44.6983 8.81239 45.4521 9.84225 46.5032 11.3074C46.5563 11.18 46.6094 11.042 46.6625 10.9252C46.482 10.681 46.2909 10.4262 46.1104 10.182C46.1847 9.98027 46.259 9.77855 46.3121 9.58744C46.5244 9.7467 46.7368 9.91657 46.9491 10.0758C46.981 9.95904 47.0128 9.84225 47.0341 9.73608C46.1741 9.05658 45.3459 8.43017 44.1674 7.55957Z" fill="#050505"/>
<path d="M44.4541 6.16895C44.4434 6.49808 44.3691 6.85906 44.2629 7.26251L44.7726 7.77213C44.815 7.62349 44.8469 7.48547 44.8787 7.34745L47.0871 9.56642C47.1084 9.46025 47.1296 9.3647 47.1402 9.26914L44.9318 7.05017C44.9531 6.92276 44.9637 6.79536 44.9637 6.67857L44.4541 6.16895Z" fill="#050505"/>
<path d="M44.3691 5.31934C44.4435 5.5423 44.4753 5.79711 44.4647 6.08377L47.1827 8.81237C47.1933 8.51509 47.1614 8.26028 47.0765 8.03732L46.5775 7.53832C46.6306 7.69757 46.6624 7.86745 46.673 8.06917L46.0042 7.40029C45.9936 7.2198 45.9617 7.06054 45.9192 6.92252L45.4521 6.45537C45.4946 6.60401 45.5264 6.76327 45.537 6.93314L44.9425 6.33858C44.9318 6.14747 44.9 5.9776 44.8469 5.81834L44.3691 5.31934Z" fill="#050505"/>
<path d="M42.0331 4.11969C42.1287 4.09846 42.2349 4.07722 42.3198 4.06661C42.2349 3.96044 41.9694 3.65254 42.0862 3.5676C42.3623 3.36588 44.0185 5.03276 44.0398 5.34066C44.0398 5.34066 43.9761 5.66979 43.0736 4.83104C42.9781 4.84166 42.8825 4.86289 42.7763 4.88412C44.1672 6.17941 44.5812 5.89275 44.5812 5.88213C44.8148 5.68041 43.7637 4.63993 43.3072 4.19401C42.5215 3.45081 41.9588 3.05798 41.6191 3.04736C41.4174 3.07921 41.3537 3.37649 42.0331 4.11969Z" fill="#050505"/>
<path d="M41.067 3.83296L41.4492 4.21518L41.8102 4.57616C41.8314 4.56555 41.8527 4.56555 41.8633 4.55493L41.8102 4.57616L42.2349 5.00085L42.7763 5.54232L43.3072 6.07318C43.4134 6.04133 43.5726 5.99886 43.6788 5.97762L40.9608 3.24902C40.8334 3.28087 40.706 3.31273 40.5786 3.34458L41.067 3.83296Z" fill="#050505"/>
<path d="M35.939 25.7041C35.7479 25.9058 35.5568 26.1181 35.3657 26.3199L32.6477 23.5913C32.8494 23.3789 33.0511 23.156 33.2528 22.9436C34.0279 23.1135 34.6649 23.2515 35.1745 23.3683L33.943 22.1367L21.2661 27.9761L24.1434 30.8534L25.5873 30.1526L25.9164 29.9934L27.2223 31.2993L27.923 32L28.4964 32.5733L28.6662 32.7432L28.8998 32.9768L28.7512 33.2741L28.0398 34.7392L30.9171 37.6165L36.7671 24.9503L36.438 24.6211L36.1301 24.3132C35.5992 24.1964 34.9197 24.0478 34.1234 23.8779L35.939 25.7041ZM30.0996 31.6815C29.7173 32.0531 29.2077 32.3079 28.6875 32.223C28.4327 32.1805 28.1672 32.0637 27.9124 31.8301C27.9761 31.7664 28.0505 31.7027 28.1142 31.639C28.2522 31.5116 28.4008 31.3736 28.5495 31.2356C28.7087 31.3736 29.0697 31.6815 29.643 31.1931C29.6536 31.1825 29.6643 31.1719 29.6749 31.1613C30.3119 30.5986 29.9297 30.1739 29.7173 30.1526C29.5581 30.1314 29.3988 30.2057 29.0272 30.4075C28.9635 30.4393 28.8892 30.4818 28.8149 30.5242C28.284 30.8109 27.9443 30.9914 27.5833 30.9702C27.5302 30.9702 27.4665 30.9595 27.4028 30.9383C27.1268 30.8534 26.7976 30.5986 26.6915 30.227C26.5853 29.866 26.6915 29.3776 27.2648 28.8043C27.3285 28.7406 27.4028 28.6769 27.4877 28.6132C27.8381 28.3371 28.284 28.146 28.7512 28.2946C28.9211 28.3477 29.0909 28.4433 29.2608 28.5919C29.229 28.6238 29.1865 28.6662 29.1546 28.6981C28.9848 28.8574 28.8255 29.0166 28.6556 29.1759C28.5601 29.1015 28.4751 29.0485 28.3159 29.0272C28.1991 29.0166 28.0611 29.0485 27.9337 29.1228C27.647 29.282 27.3922 29.6112 27.424 29.8447C27.509 30.3756 28.0398 30.0677 28.4645 29.8235C28.4858 29.8129 28.4964 29.8023 28.5176 29.7917C28.9848 29.5262 29.3882 29.3033 29.7598 29.282C29.9191 29.2714 30.0677 29.2927 30.2163 29.367C30.3225 29.4201 30.4818 29.5475 30.5986 29.7067C30.6941 29.8447 30.7791 30.0146 30.8003 30.2057C30.8428 30.641 30.5561 31.2356 30.0996 31.6815ZM31.6284 30.0677C31.5966 30.0996 31.5541 30.142 31.5116 30.1739L30.7472 29.4094L29.3033 27.9549L28.7937 27.4453C29.006 27.2329 29.229 27.0206 29.4413 26.8083L30.1526 27.5196L31.1931 28.5707L31.9045 29.2927L32.1487 29.5475C31.9894 29.7173 31.8089 29.8978 31.6284 30.0677ZM34.7286 26.925C34.6225 26.8507 34.4738 26.7552 34.357 26.6808C34.4313 27.87 33.3059 28.4858 32.6901 28.5388C32.5309 28.5495 32.3716 28.5388 32.2017 28.507C31.9257 28.4539 31.6497 28.3371 31.4055 28.1672C31.0763 27.9443 30.8109 27.6364 30.641 27.2648C30.503 26.9569 30.4393 26.6065 30.4924 26.2349C30.5455 25.8421 30.7366 25.428 31.0976 25.0246C31.3418 24.7698 32.2124 24.0053 33.2528 24.7273C33.0617 24.929 32.86 25.1414 32.6583 25.3537C32.3079 25.1414 31.9682 25.1838 31.6497 25.4811C31.4798 25.6404 31.3736 25.8102 31.3099 25.9801C31.2144 26.2774 31.2781 26.5853 31.4267 26.8613C31.5329 27.0524 31.6709 27.2223 31.8408 27.371C32.0425 27.5514 32.2761 27.6789 32.4884 27.7319C32.5415 27.7426 32.584 27.7532 32.6371 27.7532C33.3272 27.8063 34.2296 26.925 33.5289 26.0863C33.3165 26.3092 33.1891 26.4473 32.9662 26.6702L32.9025 26.6065L32.5309 26.2243C32.8388 25.9058 33.1042 25.6298 33.3909 25.3219C33.4652 25.2369 33.5501 25.152 33.6351 25.067L35.1002 26.5428C34.9941 26.6596 34.8666 26.787 34.7286 26.925Z" fill="#050505"/>
<path d="M34.8667 21.1494C34.6862 21.3511 34.5057 21.5529 34.3252 21.7546L36.1407 23.5807C35.9921 23.5489 35.8116 23.5064 35.6099 23.4639C35.4718 23.4321 35.3232 23.4002 35.1746 23.3684L35.4825 23.6763L36.1195 24.3133C36.2788 24.3452 36.4168 24.377 36.5548 24.4089C36.7459 24.4513 36.9052 24.4832 37.0219 24.515C37.2131 24.3027 37.3935 24.101 37.5847 23.8886L34.8667 21.1494Z" fill="#050505"/>
</svg>
