<svg width="40" height="40" viewBox="0 0 40 40" fill="none" xmlns="http://www.w3.org/2000/svg">
<path d="M16.5111 18.4608C16.5111 18.4608 19.4443 18.243 19.4443 14.8024C19.4443 11.362 17.0443 9.68359 14.0039 9.68359H8.40786H8.24348H4V28.909H8.24348H8.40786H14.0039C14.0039 28.909 20.1109 29.1022 20.1109 23.2346C20.1113 23.2346 20.3776 18.4608 16.5111 18.4608ZM8.40786 13.101H13.2839H14.0042C14.0042 13.101 15.3643 13.101 15.3643 15.101C15.3643 17.1011 14.564 17.391 13.6574 17.391H8.40786V13.101ZM13.746 25.4926H8.40786V20.3544H14.0039C14.0039 20.3544 16.0309 20.3285 16.0309 22.9949C16.0309 25.2182 14.5485 25.4703 13.746 25.4926Z" fill="#050505"/>
<path d="M32.0534 10.8159H24.1211V13.1836H32.0534V10.8159Z" fill="#050505"/>
<path d="M28.2566 14.5757C20.8634 14.5757 20.8698 21.9618 20.8698 21.9618C20.8698 21.9618 20.3631 29.3114 28.2569 29.3114C28.2569 29.3114 34.8357 29.6874 34.8357 24.1984H31.4523C31.4523 24.1984 31.5653 26.2664 28.3699 26.2664C28.3699 26.2664 24.9868 26.4926 24.9868 22.9206H34.9483C34.9483 22.9206 36.0382 14.5757 28.2566 14.5757ZM31.264 20.3546H24.9486C24.9486 20.3546 25.3618 17.3912 28.3317 17.3912C31.3019 17.3909 31.264 20.3546 31.264 20.3546Z" fill="#050505"/>
</svg>
