<svg width="40" height="40" viewBox="0 0 40 40" fill="none" xmlns="http://www.w3.org/2000/svg">
<path d="M16.7448 18.9412C16.7448 18.9412 19.7329 18.7193 19.7329 15.2144C19.7329 11.7098 17.288 10 14.1908 10H8.4902H8.32275H4V29.5846H8.32275H8.4902H14.1908C14.1908 29.5846 20.4119 29.7813 20.4119 23.8042C20.4122 23.8042 20.6835 18.9412 16.7448 18.9412ZM8.4902 13.4812H13.4574H14.1911C14.1911 13.4812 15.5766 13.4812 15.5766 15.5186C15.5766 17.5561 14.7614 17.8514 13.8378 17.8514H8.4902V13.4812ZM13.9281 26.1043H8.4902V20.8702H14.1908C14.1908 20.8702 16.2556 20.8438 16.2556 23.5599C16.2556 25.8248 14.7456 26.0816 13.9281 26.1043Z" fill="#050505"/>
<path d="M32.5786 11.1538H24.498V13.5657H32.5786V11.1538Z" fill="#050505"/>
<path d="M28.7111 14.9834C21.1798 14.9834 21.1864 22.5075 21.1864 22.5075C21.1864 22.5075 20.6702 29.9944 28.7115 29.9944C28.7115 29.9944 35.4131 30.3774 35.4131 24.7859H31.9665C31.9665 24.7859 32.0816 26.8926 28.8265 26.8926C28.8265 26.8926 25.3802 27.123 25.3802 23.4842H35.5279C35.5279 23.4842 36.638 14.9834 28.7111 14.9834ZM31.7747 20.8702H25.3413C25.3413 20.8702 25.7623 17.8515 28.7876 17.8515C31.8133 17.8512 31.7747 20.8702 31.7747 20.8702Z" fill="#050505"/>
</svg>
