<svg width="40" height="40" viewBox="0 0 40 40" fill="none" xmlns="http://www.w3.org/2000/svg">
<path d="M25.8625 13.9411C26.5356 13.191 26.928 12.4056 27.0657 11.5994C25.1625 10.0057 22.7142 9 20.0435 9C18.6644 9 17.3494 9.26688 16.1328 9.73383C18.17 11.7748 19.8736 14.1915 21.2061 16.8002C23.1696 16.0902 24.8061 15.1189 25.8625 13.9411Z" fill="#050505"/>
<path d="M26.8213 14.802C25.6389 16.12 23.8812 17.1918 21.7812 17.9708C22.0423 18.5432 22.2821 19.1274 22.5079 19.7193C23.5863 19.4873 24.704 19.3554 25.8438 19.3554C27.6383 19.3554 29.3815 19.6599 30.989 20.2195C30.9905 20.1458 31.0001 20.0741 31.0001 19.9999C31.0001 17.1625 29.9067 14.5818 28.1309 12.6338C27.8689 13.3888 27.434 14.1194 26.8213 14.802Z" fill="#050505"/>
<path d="M9.25195 17.6843C10.6221 17.9265 12.1401 18.0662 13.5983 18.0662C15.8589 18.0662 18.0303 17.7453 19.9656 17.194C18.6321 14.6319 16.9177 12.2738 14.8715 10.3018C12.0867 11.7995 9.93811 14.5095 9.25195 17.6843Z" fill="#050505"/>
<path d="M30.8782 21.5467C29.3233 20.9614 27.6119 20.6445 25.8441 20.6445C24.8532 20.6445 23.88 20.7484 22.9414 20.9381C23.8943 23.7957 24.4456 26.8844 24.5398 30.024C27.892 28.5075 30.3424 25.3132 30.8782 21.5467Z" fill="#050505"/>
<path d="M9 20C9 23.3899 10.634 26.4673 13.0594 28.4787C13.3163 26.7691 14.0871 25.0873 15.3424 23.6797C16.8356 22.0056 18.9077 20.752 21.2542 20.0365C21.0358 19.4732 20.7973 18.921 20.5455 18.3765C18.4488 18.9983 16.0872 19.3555 13.5977 19.3555C12.0746 19.3555 10.4896 19.21 9.05287 18.9576C9.02031 19.3011 9 19.6482 9 20V20Z" fill="#050505"/>
<path d="M16.3049 24.5373C15.0368 25.9593 14.3498 27.627 14.2617 29.3332C15.9424 30.3827 17.9198 30.9997 20.043 30.9997C21.1594 30.9997 22.2365 30.8299 23.2521 30.5182C23.2027 27.309 22.664 24.1534 21.6844 21.249C19.5402 21.892 17.6541 23.0245 16.3049 24.5373Z" fill="#050505"/>
</svg>
