<svg width="40" height="40" viewBox="0 0 40 40" fill="none" xmlns="http://www.w3.org/2000/svg">
<g clip-path="url(#clip0_76_4861)">
<path fill-rule="evenodd" clip-rule="evenodd" d="M8.98059 17.4973C8.93787 13.5928 8.9205 12.0054 10.3728 10.4969C11.8969 8.91659 13.5614 8.93049 19.3899 8.97916C20.5968 8.98924 21.9822 9.00081 23.5819 9.00002C26.1624 9.00452 26.309 9.0258 26.798 9.09679L26.826 9.10086C29.0618 9.42261 30.7585 11.0112 30.9749 13.7676C31.0042 14.1361 31.0042 25.8612 30.9758 26.2224C30.7723 28.8101 29.2836 30.2942 27.4539 30.7663C26.0835 31.1211 13.9249 31.1211 12.5526 30.7681C8.7746 29.7917 8.8652 26.089 8.96498 22.0113C8.98126 21.346 8.99778 20.6706 8.99778 19.9955C8.99778 19.0684 8.98873 18.2409 8.98059 17.4973ZM19.1961 11.8736C19.462 11.8755 19.73 11.8775 19.9991 11.8775H19.9954C20.3154 11.8775 20.6249 11.8754 20.9243 11.8734C23.5193 11.8558 25.3578 11.8434 26.7549 13.2406C28.1466 14.6314 28.1367 16.4398 28.122 19.1197C28.1205 19.4035 28.1189 19.6971 28.1189 20.001C28.1189 20.282 28.1199 20.5527 28.1209 20.8136C28.1282 22.7718 28.1335 24.1808 27.6926 25.3213C26.5777 28.1818 23.7442 28.156 20.8354 28.1296C20.5562 28.127 20.2763 28.1245 19.9972 28.1245C19.7299 28.1245 19.4633 28.1264 19.1985 28.1283C16.1908 28.1503 13.4097 28.1706 12.3027 25.3213C11.8627 24.1885 11.8686 22.5041 11.8749 20.671C11.8757 20.4496 11.8765 20.226 11.8765 20.001C11.8765 19.724 11.8755 19.4567 11.8745 19.1986C11.8674 17.2396 11.8621 15.8104 12.3027 14.6797C13.4124 11.8319 16.1724 11.8518 19.1961 11.8736ZM20.5773 13.3327C20.1678 13.3366 19.7329 13.3407 19.2712 13.3414V13.3396C13.8556 13.3451 13.3422 13.4477 13.3422 19.9973C13.3422 26.4717 13.5283 26.6569 20 26.6569C20.3265 26.6569 20.6475 26.6604 20.9613 26.6639C24.0577 26.6978 26.4527 26.7241 26.6101 23.2808C27.0653 13.2716 26.3255 13.2786 20.5773 13.3327ZM23.3605 15.6642C23.3605 15.1261 23.7968 14.6898 24.3349 14.6898C24.873 14.6898 25.3093 15.1261 25.3093 15.6642C25.3093 16.2023 24.873 16.6386 24.3349 16.6386C23.7968 16.6386 23.3605 16.2023 23.3605 15.6642ZM15.8282 20.001C15.8282 17.6974 17.6955 15.8292 19.9991 15.8292C22.3026 15.8292 24.169 17.6974 24.169 20.001C24.169 22.3046 22.3026 24.1718 19.9991 24.1718C17.6955 24.1718 15.8282 22.3046 15.8282 20.001ZM19.9991 17.2931C23.5786 17.2931 23.5832 22.7088 19.9991 22.7088C16.4204 22.7088 16.4149 17.2931 19.9991 17.2931Z" fill="#050505"/>
</g>
<defs>
<clipPath id="clip0_76_4861">
<rect width="40" height="40" fill="white"/>
</clipPath>
</defs>
</svg>
