<svg width="40" height="40" viewBox="0 0 40 40" fill="none" xmlns="http://www.w3.org/2000/svg">
<path fill-rule="evenodd" clip-rule="evenodd" d="M17.1719 16.6659H21.2573V18.7009C21.8458 17.5305 23.355 16.4789 25.6221 16.4789C29.9682 16.4789 31 18.8087 31 23.0833V31H26.6V24.0568C26.6 21.6225 26.0115 20.2497 24.5133 20.2497C22.4354 20.2497 21.5719 21.7292 21.5719 24.0557V31H17.1719V16.6659V16.6659ZM9.627 30.813H14.027V16.4789H9.627V30.813V30.813ZM14.6573 11.805C14.6575 12.1738 14.5843 12.539 14.4421 12.8792C14.2999 13.2195 14.0915 13.5282 13.829 13.7872C13.297 14.3159 12.577 14.6118 11.827 14.61C11.0783 14.6095 10.3599 14.3143 9.8272 13.7883C9.56563 13.5284 9.35792 13.2194 9.21598 12.8791C9.07403 12.5387 9.00064 12.1737 9 11.805C9 11.0603 9.297 10.3475 9.8283 9.8217C10.3606 9.29497 11.0793 8.99967 11.8281 9C12.5783 9 13.2977 9.2959 13.829 9.8217C14.3592 10.3475 14.6573 11.0603 14.6573 11.805Z" fill="black"/>
</svg>
