<svg width="40" height="40" viewBox="0 0 40 40" fill="none" xmlns="http://www.w3.org/2000/svg">
<path d="M22.05 20C22.05 24.97 18.01 29 13.024 29C11.8405 29.0016 10.6683 28.77 9.57434 28.3186C8.48035 27.8672 7.48599 27.2047 6.64804 26.3689C5.81008 25.5332 5.14494 24.5406 4.69059 23.4478C4.23624 22.3551 4.00157 21.1835 4 20C4 15.028 8.04 11 13.024 11C14.2076 10.9982 15.3801 11.2295 16.4743 11.6808C17.5685 12.1322 18.5631 12.7946 19.4013 13.6304C20.2394 14.4661 20.9047 15.4588 21.3592 16.5517C21.8137 17.6446 22.0484 18.8164 22.05 20V20ZM31.95 20C31.95 24.68 29.93 28.472 27.438 28.472C24.946 28.472 22.926 24.678 22.926 20C22.926 15.32 24.946 11.528 27.438 11.528C29.93 11.528 31.95 15.322 31.95 20ZM36 20C36 24.192 35.29 27.59 34.412 27.59C33.536 27.59 32.826 24.19 32.826 20C32.826 15.808 33.536 12.41 34.414 12.41C35.29 12.41 36 15.808 36 20Z" fill="black"/>
</svg>
