<svg version="1.0" xmlns="http://www.w3.org/2000/svg" width="933.333" height="933.333" viewBox="0 0 700 700"><path d="M111.1 119.6l-60.5 60.5 84 84 83.9 83.9-85.9 85.9-86 86 60.6 60.5c33.3 33.4 60.8 60.6 61.2 60.6.4 0 12.6-11.9 27.2-26.5s27-26.5 27.5-26.5.9-.5.9-1c0-.6 1.7-2.7 3.9-4.9 3.6-3.6 3.9-3.7 6.5-2.4 2.4 1.3 3 1.2 5.3-.2l2.5-1.7-2.4-1.6c-1.2-.8-2.5-1.7-2.7-1.8-.2-.2.2-1.1.9-1.9 1.2-1.4 1.6-1.3 4 1s3 2.5 5.4 1.4c3.3-1.5 3.3-1.8-.3-5.5l-3-3 3.5-3.7c2-2 3.9-3.7 4.3-3.7.4 0 2.4 1.8 4.5 3.9 3.8 3.9 3.8 3.9 6.7 2.2 1.6-.9 2.9-1.8 2.9-2.1 0-.3-2-2.6-4.4-5l-4.4-4.5 2.8-3.2 2.8-3.1 7.2 4.4 7.2 4.4 3.4-2.6c1.9-1.5 3.4-2.8 3.4-3 0-.2-2-3.7-4.4-7.8l-4.4-7.4 3.2-3.1 3.2-3.1 6.8 6.9 6.9 7 11.9-9.1c6.5-4.9 11.8-9.2 11.8-9.4 0-1-4.5-5.4-5.5-5.4-.7 0-4.7 2.7-8.8 6-4.2 3.3-8 6-8.5 6-.4 0-2.5-1.7-4.5-3.8l-3.8-3.9 7-5.2c7.7-5.7 8.9-7 7.3-8-.6-.4 1.8-3.7 6-8l7.1-7.3 9.2 9.2 9.2 9.1 7.7-6.4c8.9-7.4 12.4-12.1 13.4-17.7l.7-4 76.3 76.3 76.4 76.4 17.7-17.8c16.5-16.6 18-17.8 22.1-18.4 7.4-1.1 17.8-5.1 26.3-10.2 9.5-5.7 23.6-18.7 30.7-28.2 5.5-7.5 12.3-21.3 13.6-27.6.4-2.2.8-4.3.9-4.8.2-.4.3-1.6.4-2.7 0-1.1 2.3-4.4 5.1-7.2l4.9-5.1-5.4-5.5c-4.2-4.3-5.8-6.8-7.1-11.1-2.1-7.4-8.4-19-14.5-26.9-2.8-3.5-17.2-18.5-32.1-33.4l-27-27-4.5 4.4-4.5 4.5-23.4-23.4-23.4-23.5 1.6-3.6c4.1-9.4 4.1-8.7.1-12.6-2.1-2-3.5-3.6-3.2-3.6.4 0 2.6.5 5.1 1.1 4.2 1.1 4.7 1 7-1.2 5.2-4.8 5.1-4.9-5.7-15.9l-10.1-10.2 6.3-6.4c5.3-5.3 6.8-6.3 9.5-6.2 2.3.1 5.8-1.3 11.1-4.4 4.3-2.4 8.6-4.8 9.6-5.1 2.2-.8 5.7 2.5 5.2 5-.2 1-.4 2.3-.4 3-.2 2.1-6.2 7.3-8.5 7.3-1.2 0-3.1-.6-4.1-1.4-1.4-1-2.1-1.1-2.9-.2-.6.7-2.1 2.4-3.4 3.8l-2.3 2.6 3.7 2.2c10.1 6.3 23.3-2.4 25.9-16.9.7-4.3-2.4-11.2-6.4-14.1-2.6-1.7-4.1-2.1-7.3-1.7l-4 .5 1.9-2.1c2.2-2.5 3.1-3.5 6.5-6.6 2.3-2 3-2.2 6-1.2 1.8.6 6 3.8 9.2 7.1 3.3 3.3 6.3 6 6.6 6 .3 0 1.6-1.4 2.9-3.1l2.3-3.1-6.5-6.6c-8.9-9.3-9.1-10.3-2.9-16.5l5-5 7 7.1c3.9 4 7.2 7.2 7.4 7.2.2 0 1.5-1.4 2.7-3.1l2.3-3.1-6.6-6.7c-4.8-4.8-6.5-7.2-6-8.4 1.1-2.8 4.5-2.9 12.3-.2 4.1 1.4 8 2.5 8.7 2.5.8 0 2.1-1.4 3-3.1l1.6-3.2-5.3-5.3c-4.8-4.8-5.2-5.6-3.8-6.9 1.4-1.4 2.1-1 6.7 3.6l5.2 5.2 3.9-6.1c5.4-8.3 6.5-12.7 4.7-19.6-.4-1.7-.1-3.4.8-4.8 1.5-2 1.5-2 4.1.8l2.6 2.9 1.9-2.5c1.8-2.5 1.8-2.5-.2-4.7l-2.1-2.3 2.2-2.4c1.2-1.3 3.5-2.6 5.1-3 2.6-.5 6.2-4.9 6-7.3-.1-.5 3.5-4.5 7.9-8.9l8.1-8.1-17.1-17.2c-9.4-9.5-16.9-17.6-16.7-18.2.2-.5 6.2 4.9 13.3 12.2 9.8 9.9 13.1 12.6 13.3 11.2.2-1.3-3.8-5.9-12.8-14.8-10.1-10-13-13.5-13-15.5 0-1.6-1.2-3.7-3-5.5-1.6-1.6-3-2.7-3-2.4-.2 2.3-1.3 8.5-1.5 8.7-.2.2-2.8-2-5.8-4.9-4.6-4.3-5.3-5.5-4.1-6.3 1.2-.9-1.6-4.1-14.6-17.1-11.5-11.5-16.6-16-18.4-16.1-1.8-.1-7.3-4.9-20-17.7C513 70.9 504.8 63 504.3 63c-.4 0-35.5 34.7-77.9 77.1l-77.1 77.1-11.7-11.6-11.7-11.7-4.3 4.6-4.3 4.5-8.9-8.9c-4.9-4.9-10.1-10.2-11.6-11.8l-2.7-2.9 7.7-.2c4.2-.2 7.8-.5 8-.7.2-.1-9.2-9.8-20.8-21.4-20.1-20.1-21.3-21.1-24.3-20.7-1.8.3-5.2.8-7.7 1.1l-4.6.5-12.2-12.2-12.3-12.1 4.2-4.3c3.8-3.9 4.1-4.5 2.8-6.1-2.2-2.7-31.8-32.3-32.3-32.3-.3 0-2.4 1.8-4.6 4-4.9 4.8-3.6 5.4-15.9-7.3-4.7-4.8-9-8.7-9.6-8.7-.5 0-28.2 27.3-61.4 60.6zm72.3-47.8c4.5 4.6 8 8.8 7.8 9.3-.1.6-23 23.7-50.7 51.5L90 183.2l8.2 8.2c4.6 4.5 12.2 12.1 17 16.9l8.7 8.7 16.8-16.5 16.7-16.5 5.6-.1c3 0 7.6-.1 10.2-.2 3.8-.2 4.7.1 4.3 1.3-.2.8-3.4 14.5-7 30.5-3.7 15.9-6.9 29.9-7.1 31-2.1 8.7-3.5 6.5 19.5 29.6 11.7 11.6 21.4 20.9 21.7 20.6.3-.2 3.4-16.1 6.9-35.3 3.5-19.2 6.6-36 6.9-37.4.8-4.4 2.5-13.4 3-16 .2-1.4 1.4-7.8 2.6-14.3l2.2-11.7 3.7-.1c2 0 5.6-.2 8.1-.4 2.5-.1 14.9-.6 27.5-1 12.7-.4 23.2-.7 23.5-.7.3 0 1 0 1.6.1 1.3.1 24.4 23.1 24.4 24.3 0 .4-22.7 23.5-50.5 51.3-27.8 27.8-50.5 50.7-50.5 51 0 .3 6.5 7.1 14.5 15.2l14.6 14.6-2.2 2.4c-2.6 2.6-2.6 2.1 3.2 23.2 1.6 5.8 2.9 10.9 2.9 11.5 0 .6-4.5-3.4-10-8.9l-10.1-10-3.4 4c-1.9 2.2-3.5 4.2-3.5 4.5 0 .3 7.6 8.1 17 17.5l16.9 16.9 3.5-3.9c1.9-2.2 3.5-4.5 3.6-5.1 0-.6-1.3-5.7-2.9-11.5-3.1-11.4-5.1-19.4-5.1-20.6 0-.4 4.5 3.7 10 9.2l9.9 9.9 2.5-2.3 2.4-2.3 10.1 10.2 10 10.2 14.7-14.6c12.8-12.7 14.5-14.8 13.4-16.1-.8-.9-5.5-5.8-10.6-10.8l-9.3-9.3.6-5.7c1.2-11.7-4.8-22.2-15.7-27.5l-6-2.8 2.5-2.4 2.6-2.4 13.4 13.4c7.3 7.4 13.7 13.6 14.2 13.7.5.2 2.8-1.6 5.1-4l4.2-4.3-14-13.9-13.9-13.9 2.2-2.4 2.1-2.3 2 2.6 1.9 2.6 4.3-4.2c3.4-3.4 4.1-4.6 3.4-6-1.6-2.9-1.2-4.6 2.1-8.4 2.3-2.5 3.9-3.5 6.1-3.5 2.9 0 3 .2 2.4 3-.3 1.7-2.7 6.6-5.3 10.8-6.3 10.4-7 16.2-2.3 21.5 5.2 6 11.5 6.6 20.5 1.9 11.7-6.1 17.9-18.5 13.6-27.4-2.8-6-3.4-6.1-8.4-1.5-4.2 3.9-4.5 4.4-3.1 6.1 2.4 3.4 1.7 7.1-2.1 10.8-4.8 4.5-6.9 5.1-9.6 2.9l-2.2-1.8 3.8-6.9c6.3-11.2 7.6-14 7.9-17 .3-3.7-1.6-7.6-5-10.3-2.2-1.7-2.4-2.3-1.4-3.6.8-1 1.7-1.2 2.4-.6.8.7 4-1.7 10.1-7.4 5-4.7 9.5-8.4 10-8.4.6 0 2 1.3 3.2 2.8l2.3 2.9-8.5 7.8-8.5 7.8 3.2 3.3c1.7 1.8 3.4 3.3 3.7 3.3.6 0 5.6-4.5 13.9-12.3l3.2-3.1 3.4 3.3 3.4 3.3-9.5 9.2-9.6 9.2 3.7 3.5 3.6 3.4 14.8-14.2 14.7-14.3-16.8-16.5c-9.3-9.1-17.3-16.5-17.8-16.5s-2.1-1.1-3.5-2.5c-2.2-2.2-2.4-2.8-1.2-4.3.7-.9 35.2-35.6 76.6-77.1l75.3-75.5L521 81.5c16.7 16.7 16.9 17 14.6 18.2-1.4.7-2.7 2.2-3.1 3.2-1.2 3.9 5.3 12.4 11.9 15.5 1.8.9 3.9 2.8 4.5 4.3.7 1.6 3.4 5.2 6.2 8.2 2.8 2.9 4.8 5.5 4.5 5.8-.3.3-7.9-6.9-16.8-16.1-9-9.1-16.9-16.6-17.4-16.6-1.5 0-17.4 7.8-17.4 8.6 0 .3 1.2 1.9 2.7 3.5 2.7 2.8 5.7 3.7 6.7 2 .3-.4 2.6-1.6 5.1-2.5 4.5-1.8 4.6-1.8 7 .6 1.4 1.2 2.5 2.6 2.5 2.9 0 .3-2.2 1.6-5 2.9-2.7 1.3-5 2.6-5 2.9 0 .3 1.4 2 3.1 3.7l3.2 3.3 4.8-2.5c2.7-1.3 5.3-2.4 5.8-2.4s2.4 1.3 4.1 2.8c3.6 3.3 3.2 3.9-4.4 7.2l-4.9 2.1 2.9 3.1c1.8 1.9-2.8-.7-12.1-6.9-29.2-19.4-26.2-17.7-29.5-16.3-5.2 2.1-5.6.7 6.6 21.5 3.9 6.6 8.3 14.2 9.8 16.8 1.5 2.7 3.1 4.7 3.4 4.5.4-.2 1.9-1 3.5-1.7 3.3-1.7 3.3-2.4.5-6.9l-2.1-3.5 2.4-1.8c4.1-3.2 5.8-3.2 10.5-.2l4.4 2.9 13.8-6.8c7.5-3.7 15-7.2 16.7-7.6l3-.8-5.3-5.6c-5.2-5.5-6.3-8.1-3.8-9.1 1.2-.5 26.6 23.9 26.6 25.6 0 1 4.7 5.7 5.7 5.7.5 0 4.2 3.5 8.3 7.7 4.1 4.2 6.8 7.2 6 6.6-.8-.6-5.7-4.3-10.9-8.2-9.4-7.2-11.6-8-11.5-4.5 0 2.5 28.3 41.6 29.5 40.8 1.8-1 .8-4.7-2.1-8.4-2.8-3.5-2.9-4-1.7-7.4l1.2-3.6 3.5 2.5c1.9 1.4 4 2.3 4.6 2.1.7-.3 2.2.6 3.5 2l2.2 2.4-2.4 2.6c-4.3 4.7-11.2 11.4-11.3 11.2-1.2-3.1-5.4-10.3-7.6-12.9l-2.8-3.4-.7 2.7c-.5 2-.1 3.5 1.3 5.6 4.4 6.1 3.3 12.2-2 10.9-3.4-.9-11-7.8-14.7-13.4-5.2-7.8-3.7-14.3 2.6-11.4 2.8 1.3 4.5.1 4-2.9-.4-2.4-8.9-6.4-11.9-5.7-3.3.9-5.3 6.2-4.3 11.5 1.7 9 11 21.2 20.4 26.7 2.8 1.6 5.1 3.2 5.1 3.5 0 .3-1 1.1-2.1 1.9-2 1.2-3 .5-15.6-12.3-7.4-7.5-13.6-13.6-13.8-13.6-.1 0-.8 1.3-1.4 2.9-1.2 2.8-1 3.1 11.3 15.5 6.9 6.9 12.6 12.9 12.6 13.4 0 .4-.5 1.3-1.1 1.9-.9.9-1.9.1-4.2-3.3-4.5-6.9-13.7-13.6-19.9-14.8-3.9-.7-7.9 2.4-12.6 9.8l-4.2 6.8 10.4 10.5c9.2 9.3 10.3 10.8 9.3 12.4-1.1 1.7-2.1.9-11.8-8.7l-10.6-10.6-2 3.2-2.1 3.2 9.4 9.5c7.9 7.9 10.6 11.3 9.2 11.3-.2 0-6.3-2-13.6-4.4l-13.4-4.3-2.4 2.6c-1.3 1.4-2.4 3.1-2.4 3.8 0 .6 3.7 4.8 8.1 9.2l8.2 8.2-1.9 2.2c-3.1 3.6-6.7 6.6-7.5 6.2-.4-.3-2.4-5.3-4.5-11.2-2-6-3.9-11-4.2-11.3-.2-.3-1.7 1-3.2 2.9l-2.9 3.4 3.5 9.5c1.9 5.3 3.3 9.9 3.2 10.3-.2.4-4.1-.5-8.6-1.9-9.2-2.8-9.9-2.7-13.9 2.5l-2.4 3.1 9.3 2.2c5.1 1.3 9.9 2.6 10.6 3 .9.4-1.4 3.2-7.1 8.9-9.6 9.3-11.1 10.5-14.8 11.4-5.5 1.4-5.4-7.7.1-11.6 1.6-1.1 3-1.3 5.2-.7 2.6.8 3.3.5 5.4-1.8 2.9-3.4 2.9-3.8.1-5.7-5.7-3.7-11.2-2.7-16.9 2.9-7.5 7.5-8.4 20.3-1.8 24.9 1.7 1.2 1.5 1.6-2.4 5.7-8.6 9.1-7.8 9-13.4 3.1-2.7-2.8-5.2-5.1-5.6-5.1-.4 0-2 1.4-3.6 3.2-3.3 3.6-3.4 3.3 3.8 10.6l3.4 3.4-2.3 2.4-2.2 2.4-5-5c-2.7-2.8-5.5-5-6.2-5-.7 0-6.2 2.3-12.2 5.1-5.9 2.8-18.9 8.9-28.8 13.4-9.9 4.6-21.1 9.7-25 11.5-14 6.5-23.6 10.9-55.3 25.5l-32.3 14.8 17.3 17.4c9.5 9.5 17.6 17.3 18.1 17.3.4 0 5.3-2.3 10.9-5.1l10.1-5 13.6 13.3c7.5 7.3 15.7 15.5 18.3 18.3l4.6 5-5.2 10.5-5.3 10.4 17.4 17.4c9.6 9.6 17.5 17.3 17.7 17.1.5-.5 11.6-23.9 11.6-24.4 0-.1 2.5-5.5 5.5-12 3-6.4 5.5-11.8 5.5-11.9 0-.2 2.4-5.5 5.4-11.7 4.8-10.3 11.9-25.7 18.9-40.9 1.4-3 4.3-9.3 6.5-14 2.2-4.7 5.6-12.1 7.6-16.4 2-4.4 3.8-7.7 4.1-7.5 4 3.6 45.5 45.5 45.5 45.9 0 .3-22.7 23.2-50.5 51S432 523.9 432 524.3c0 1.4 53.2 54 60.5 59.8 13.3 10.6 26.5 16.3 40.8 17.7l7.6.7-16.3 16.4-16.3 16.3-77.6-77.6c-42.8-42.7-77.7-78.2-77.7-79 0-2.2-9.1-11.1-14-13.6-5.8-3-13.1-3-18.6-.2-3.1 1.6-14.8 10.5-19.3 14.8-.3.3 2.5 3.5 6.2 7.2l6.6 6.7-6.2 6.5c-3.9 4.1-7 6.5-8.5 6.6-1.3 0-5.6 2.6-9.6 5.7l-7.3 5.6-3.6-3.7-3.7-3.7 8.5-6.5 8.5-6.4-2.7-2.8c-1.5-1.6-3.2-2.7-3.8-2.4-.6.2-6.1 4.2-12.2 8.8l-11.1 8.5 8.9 8.9c4.9 4.9 8.9 9.1 8.8 9.4 0 .3-1.3 1.5-2.9 2.7l-2.8 2.3-2.5-4.3c-1.3-2.3-3.9-6.9-5.7-10.2-1.8-3.3-3.6-6.4-4-6.9-1-1-7 2.4-7 3.9 0 .5 2.9 6 6.5 12 6.2 10.6 7.1 12.7 5 12.6-.6-.1-6.5-3.5-13.2-7.7l-12.2-7.5-3.1 1.7c-1.6 1-3 2.1-3 2.4.1.7 3.2 2.9 14.8 9.9 5.6 3.5 10.4 6.6 10.6 7 .2.3-.7 1.9-2 3.5l-2.5 2.8-11-10.8c-6-6-11.3-11-11.8-11.2-.4-.1-1.9.6-3.2 1.7l-2.4 2 11.5 11.5 11.4 11.6-3.8 3.9-3.9 4-9.4-9.6-9.5-9.5 4.2-2.5 4.2-2.5-2.8-2.9c-1.5-1.6-3.1-2.9-3.5-2.9-.4 0-5.4 2.8-11.2 6.3l-10.6 6.4 3.1 3 3 3 3.9-2.1 3.9-2.1 10 10.1c9.5 9.5 10 10.1 8.3 11.6-1.7 1.5-2.9.9-19.1-9.7-15.7-10.3-17.6-11.3-19.8-10.3-1.3.6-2.4 1.6-2.4 2.2.1.6 5.2 9 11.5 18.6 6.2 9.6 11.1 17.9 10.8 18.3-.3.5-1.8-.5-3.3-2.3l-2.7-3.2-4.4 2c-7.5 3.3-7.4 3.3-11.5-.9-2.1-2.1-3.6-4-3.3-4.2.2-.2 2.3-1.1 4.7-2.2 2.3-1 4.2-2.1 4.2-2.5 0-.3-1-1.6-2.3-2.8l-2.3-2.2-5.5 1.9-5.4 2-3.2-3.2c-1.8-1.7-3.3-3.4-3.3-3.7 0-.3 2.3-1.4 5-2.4 2.8-1 5-2.2 5-2.7 0-.8-4.7-5.9-5.5-5.9-.2 0-2.9 1.1-5.9 2.5-3 1.4-5.9 2.5-6.5 2.5-3.3 0-.5 3.7 13.9 18.2l16.1 16.2 5.2-1.9c2.9-1 5.8-2.2 6.5-2.8.7-.5 1.4-.8 1.7-.5.2.2-10 10.8-22.8 23.6L168.5 639l-59-59c-32.4-32.4-59.1-59.4-59.3-60-.2-.5 38.1-39.4 85.1-86.5l85.5-85.5-83.9-83.9L53 180.2l59.6-59.6c50.7-50.6 59.9-59.4 61.2-58.3.8.6 5.2 5 9.6 9.5zm358.8 29.9c2.3 2.1 2.3 2.9-.2 3.6-3.1.8-2.4 4.2 1.7 7.7 3.2 2.8 4.1 3.2 7.7 2.7 2.9-.4 4.7-.1 6.1 1 1.4 1.1 1.6 1.7.7 2-.7.3-1.9 1.1-2.7 2-1.9 1.8-1.1 3.3 4.6 9.3 3.3 3.4 3.9 4.6 2.6 4.8-2.5.5-13.3-11.9-12.3-14.3.3-.9-.6-1.7-2.8-2.5-6.5-2.1-15.6-11.8-13.7-14.8.5-.9 4.3-2.9 6-3.1.3-.1 1.3.6 2.3 1.6zm-.8 20l15.6 15.7-7.7 3.6-7.7 3.7-2.3-2.1c-1.3-1.1-2.3-2.1-2.3-2.3 0-.1 2.8-1.7 6.1-3.4l6.2-3.1-4.6-4.6-4.6-4.6-6 2.6c-5.8 2.5-6 2.5-7.6.8-2.2-2.4-1.6-3.3 4-5.5 2.5-1.1 4.5-2.2 4.5-2.5 0-.3-1.8-2.3-4-4.5l-4-3.9-6 2.9-6.1 2.9-2.1-2.2c-1.2-1.2-2-2.3-1.7-2.6 1.1-1 12.5-6.5 13.6-6.6.7 0 8.2 7.1 16.7 15.7zm8-11.8c3.4 3.5 3.6 3.9 1.8 4.3-3.5.9-10.2-4.7-8.7-7.2 1.1-1.8 3.1-1 6.9 2.9zm-310.6 17.2c5.6 5.6 10.1 10.4 9.8 10.6-.5.5-10.3 1.9-19.5 2.8-3.6.3-7.9.8-9.5 1-3.3.4-11.1 1.3-18.8 2l-4.7.5 5.6-5.2c3.1-2.9 9.9-9.5 15.1-14.6 6.4-6.2 9.9-8.9 10.6-8.3.6.5 5.7 5.5 11.4 11.2zm279.6 6.4c17.3 11.3 19.5 13.1 18 14.2-1.4 1-2.3.7-6-1.7-2.3-1.7-4.7-3-5.3-3-1.3 0-10.1 5.3-10.1 6.1 0 .3 1.1 2.2 2.5 4.2l2.4 3.7-2.2 1.5c-1.1.8-2.4 1.1-2.8.7-.7-.6-7.4-12.1-13.1-22.2-1.1-1.9-2.4-4-2.8-4.5-.4-.6-1.9-3.2-3.4-5.8l-2.6-4.8 2.3-.9c1.2-.5 2.5-.8 2.8-.7.3.1 9.5 6 20.3 13.2zm82.3 34.5c2.6 2.1 2.9 2.9 2.2 4.9-.5 1.3-1.1 2.2-1.2 2-10-13.1-10.3-13.4-7.1-11.4 1.7 1.1 4.4 3.1 6.1 4.5zm-22.1 50c1.9 2.5 3.3 5.4 3.3 6.5 0 1.1-1.8 3.5-3.9 5.3l-3.9 3.4-8-8.3-8.1-8.3 2.4-3c1.3-1.7 3.4-3.3 4.7-3.7 3.5-.9 9.6 2.8 13.5 8.1zm3.9 13.6c-2.3 5.6-3.4 6.6-5.1 4.9-.8-.7-1.4-1.6-1.4-2 0-.8 7.3-7.5 7.8-7.1.2.2-.4 2.1-1.3 4.2zm-208 12.3c7.4 7.4 13.5 13.7 13.5 14 0 .3-3.5 3.8-7.7 7.8-4.3 4.1-10.1 9.7-13 12.5-5.1 5.1-5.3 5.1-7.3 3.3-1.1-1-2-2.2-2-2.6 0-.8 11.2-11.9 16-15.7l2.5-2.1-4.5-4.5c-2.4-2.6-4.7-4.5-5.1-4.4-.3.2-4.1 3.4-8.4 7.3-4.2 3.8-8 7.1-8.4 7.3-.4.1-1.6-.7-2.6-1.8-1.9-2.1-1.9-2.2 6.4-9.9 6.2-5.7 8.2-8.1 7.6-9.2-1.1-1.7-6.6-6.4-7.6-6.4-.4 0-3.4 2.4-6.6 5.4-10.8 10.1-12.6 11.6-12.2 10.3.6-1.7 24.2-25.3 25.1-25 .4.2 6.8 6.3 14.3 13.7zm175.8 8.8c3.1.6 3.4 1.5 1.1 3.3-1.3 1.1-2 .8-4.7-2-2.4-2.5-2.7-3.1-1.2-2.6 1.1.4 3.2 1 4.8 1.3zm-214.9 13.2c2 3.9 1 7.6-5 18.2-4.6 8.2-5.3 10-4.5 12.1 1.9 5 8.1 4.5 13.7-1.1 3.9-3.8 4.9-7.4 3.3-11.3-1-2.6-.9-3.1 1.5-5.3 3.3-3.1 3.9-3.1 5.5-.3 4.5 8.6-.5 19.5-12 26.1-6 3.4-10 4.1-14 2.4-4.3-1.8-6.6-4.4-7.2-8.2-.5-3.8.6-6.8 6.6-17.7 5.1-9.2 5.4-12.1 1.5-13.3-1.9-.7-1.8-.9 1.2-4 3.1-3.2 3.4-3.3 5.7-1.8 1.3.9 3 2.8 3.7 4.2zm-25.1 19.3c-2.4 2.5-2.9 2.7-4.2 1.3-1.3-1.3-1.1-1.9 1.9-5 3.4-3.5 3.5-3.5 4.2-1.4.7 1.7.2 2.9-1.9 5.1zm.8 19.7c7.1 7.2 12.9 13.4 12.9 13.8 0 .5-1.4 2.1-3.1 3.6l-3.1 2.7-13.3-13.4-13.3-13.3 3.1-3.2c1.7-1.7 3.3-3.1 3.5-3.1.2 0 6.2 5.8 13.3 12.9zm-21.7 3.5c5 2.1 11.1 8 13.5 13.1 2 4.3 2.9 14.3 1.5 15.8-.8.7-7.4-5.6-7.4-7 0-4.4-7.4-12.3-14.2-15.2-2.7-1.1-4.8-2.4-4.8-2.8 0-1.5 4.4-5.3 6.2-5.3 1 0 3.4.6 5.2 1.4zm-1.1 11.7c2.1 1.7 4.5 4.5 5.3 6.2 1.4 2.7.6 2.2-4.5-2.8-3.3-3.3-6.1-6.1-6.1-6.3 0-.9 2.1.2 5.3 2.9zm191.2 18.2c6 6.6 6 6.6 1.8 5.6-6.5-1.5-7-1.1-3.3 2.5 8.2 7.7 8.3 7.6-3 5-14.1-3.1-13.7-2.8-9.2-6.8 2.9-2.6 4.5-3.4 6.3-3 2.1.5 2.2.4.6-.6-1.8-1.1-1.8-1.3.4-3.6 1.2-1.3 2.5-2.4 2.8-2.4.4 0 2 1.5 3.6 3.3zm-16.3 6l-3.6 3.7 11.7 11.8 11.7 11.8-3.3 3.2-3.3 3.2-16.4-16.5-16.4-16.4 2-2.3c4.8-5.7 4.6-5.6 13.3-3.9l8 1.6-3.7 3.8zm-202.8 9.3c13.9 13.9 15.4 15.8 14.3 17.5-.6 1-1.4 1.9-1.7 1.9-.3 0-4.8-4.4-10.1-9.8-15-15.2-14-14.9-10.7-2.4 1.5 5.9 3 11.6 3.3 12.7.2 1.1 1.1 4.5 1.9 7.5 2.1 7.2 2 8-.9 11.3l-2.5 2.8-15.9-16-15.9-15.9 2.3-3.2 2.3-3.1L238 368c6.1 6.2 11.4 11 11.7 10.7.2-.3-1-5.9-2.7-12.4-5.8-21.4-6.2-23.5-4.9-26 .7-1.3 1.6-2.3 2-2.3.4 0 7.7 7 16.3 15.6zm186.9 3.2c3.4 1.4 3.3 1.9-.2 5.8-2.6 2.9-3.3 3.1-7.3 2.7-4-.5-4.9-.2-8.1 2.7-6.9 6-6.5 14.2.9 21.6 7.6 7.6 15.5 7.8 21.7.5 3.1-3.7 3.6-9.4 1.3-12.7-1.4-1.8-1.6-1.8-5 1.6l-3.6 3.4-2.6-2.5-2.5-2.5 6.8-7.2 6.8-7.3 8.9 9 8.9 8.9-2.2 2.3c-1.8 2-2.5 2.2-4.1 1.1-2.7-1.7-3-1.6-3 1.3 0 9.5-11.2 19.4-22 19.5-5.2 0-13.1-3.4-17.4-7.6-1.6-1.5-4-5.2-5.4-8.2-2-4.4-2.4-6.4-1.9-10.7 1.6-15.9 16.9-26.9 30-21.7zm-25.9 44.3l15.8 16.1-3.8 3.9-3.8 3.9-16.5-16.5-16.5-16.5 3.4-3.5c1.9-1.9 3.9-3.5 4.5-3.5.6 0 8.2 7.3 16.9 16.1zm-21.5 2.8c1.1.7 2.1 1.4 2.1 1.8 0 .3-1.6 2-3.6 3.8-2.9 2.7-4 3.2-5.4 2.3-5.7-3.6-16.9 7.9-11.7 11.9 1.8 1.5 3.8.9 13.6-4.1 10.9-5.6 15.4-6.4 19.7-3.7 3.6 2.2 6.4 7.1 6.4 11-.1 6.7-7.9 17.4-15.4 21-5.3 2.6-9.9 2.6-15.5 0l-4.4-2 3.8-3.9c3.7-3.8 3.9-3.9 6.7-2.4 6.6 3.4 17.6-5.6 14.6-12.1-1.6-3.6-4.5-3.2-14.7 2.1-9.5 4.9-14.1 5.9-18.1 3.9-8.5-4.3-9.5-13-2.5-22 6.8-9 16.3-11.9 24.4-7.6zm-67.2 68.9c.9.6-.6 2.7-4.9 7-3.4 3.4-6.5 6.2-6.9 6.2-.5 0-2.2-1.3-3.8-2.9l-3-2.9 2.2-2c5.7-5.2 12.9-7.6 16.4-5.4zm235.5 22.3c9.9 17 5.2 35-13.1 50.1-7.9 6.6-14.5 9.2-23.1 9.3-10.5 0-16-2.9-28.6-15l-9.9-9.5 28-28 28-28.1 8.1 8.4c4.4 4.6 9.2 10.4 10.6 12.8zm-226.4-14.7c4.6 6.9 4.3 9.8-1.8 15.9l-4.9 4.9-6.5-6.6-6.4-6.5 6.6-6.6c3.7-3.6 7.4-6.4 8.2-6.2.8.1 3 2.4 4.8 5.1zm283.1 32.8l2.4 3-3.4 3.4-3.4 3.4-.1-6.9c-.2-7.7.4-8.1 4.5-2.9zm-407.1 58.4c-1.3.7-2.8 1.3-3.3 1.4-.9 0-8.5-11.2-8.5-12.5 0-.2 3.2 1.9 7.1 4.7 6.9 5 7 5.2 4.7 6.4zm11 4.6c.9.9.4 2-2.5 5-2 2.1-4 3.8-4.3 3.8-.6 0-3-4.5-3-5.5 0-.5 6.8-4.2 8.1-4.4.3-.1 1 .4 1.7 1.1z"/><path d="M481 127.1c-8.2 5.2-27.8 18.4-30.7 20.7-2.5 1.9-2.5 1.7 2.4 10.2 6.4 10.9 9.3 16.3 9.1 16.5-.2.2-6.3-3.3-13.7-7.7l-13.3-7.9-6.2 4.7c-3.3 2.6-10.9 8.6-16.9 13.3l-10.7 8.5 3.2 3.3c1.7 1.8 3.5 3.3 3.8 3.3.4 0 4.4-2.9 9-6.5s8.5-6.5 8.8-6.5c.6 0 5.2 5.3 5.2 6-.1.3-2.8 2.5-6.1 5-9.5 7.1-9.6 7.2-6 10.9 1.7 1.7 3.3 3.1 3.7 3.1.7 0 8.5-6.1 11.2-8.7 3.9-3.7 5.1-3.6 9 .9l2.4 2.6-7.4 5.8c-11.1 9-10.6 8-6.6 12.1l3.5 3.5 10.9-8.8c6-4.8 11.9-9.4 13.2-10.2 2.3-1.5 2.3-1.6-13.5-17.5-11.4-11.5-14.7-15.4-11.8-13.7 2.2 1.2 6 3.4 8.5 4.8s7.7 4.4 11.5 6.7c3.9 2.3 9.5 5.5 12.5 7.2l5.5 3 4.1-3.2 4.2-3.2-10.3-17.9c-5.7-9.8-10.1-18.1-10-18.2.2-.2 6.8 6.2 14.7 14.3 15.4 15.7 15.4 15.7 20.7 11.6l2.5-1.9-12-12c-16.2-16.2-15.1-14.4-10.4-17.7l4-2.8 13.4 13.5 13.4 13.4 3.6-2c2-1.2 3.6-2.3 3.6-2.6 0-.3-5.9-6.6-13.2-13.9-11.6-11.9-12.9-13.6-11.4-14.5 1-.6 2.8-1.9 4-2.8l2.1-1.7-3.5-3.5-3.5-3.6-6.5 4.1zm8.7 1.1l2.3 2.2-4 2.6-4 2.6 13 13.1c7.2 7.2 13 13.6 13 14.2 0 .5-1 1.3-2.1 1.6-1.8.6-4.4-1.5-15.1-12.1l-13.3-13.3c-.3-.2-2.2.8-4.4 2.3-3.9 2.8-4 2.8-6.5.9-1.4-1-2.6-2.1-2.6-2.5 0-.6 19.9-13.7 20.9-13.8.3 0 1.5 1 2.8 2.2zm-7.7 32.1c11.8 12.2 12.4 12.9 10.6 14.3-1.1.8-2.4 1.4-2.8 1.4-.5 0-7.8-7.1-16.3-15.7-15.2-15.5-15.3-15.6-13.2-17.4 2.1-1.6 2.3-1.6 5.7 1.4 1.9 1.8 9.1 9 16 16zm-16.9 2.9c13.6 23.5 12.8 21.6 9.4 24.4-3.3 2.6-2.8 2.8-17-5.6-4.4-2.6-12.4-7.3-17.7-10.5-5.4-3.1-9.8-6-9.8-6.4 0-.4 1.1-1.3 2.4-2 2.8-1.5 2-1.9 20.4 9.1 7.3 4.4 13.5 7.8 13.6 7.7.2-.2-2.1-4.7-5.2-9.9-3-5.2-6.8-11.8-8.4-14.7l-2.8-5.2 2.2-1.5c1.2-.9 2.5-1.6 2.9-1.6.3 0 4.8 7.3 10 16.2zm-22.6 20.4c8.5 8.5 15.5 15.6 15.5 15.8 0 .1-3 2.7-6.7 5.6-3.8 3-8.9 7.1-11.4 9.1-4.6 3.8-4.7 3.8-6.8 2-1.1-1-2.1-2.3-2.1-2.8s3.8-4 8.5-7.7l8.5-6.8-4.2-4.4c-2.3-2.4-4.6-4.4-5.1-4.4s-4.3 2.7-8.4 6.1l-7.6 6-2.3-2.2-2.3-2.1 3.2-2.7c1.7-1.4 3.9-3.1 4.7-3.8.8-.6 3-2.4 4.8-3.9l3.3-2.7-3.7-3.8c-2.1-2.2-4.1-3.9-4.4-3.9-.4 0-4.4 2.9-9 6.5s-8.6 6.5-8.9 6.5c-.4 0-1.5-.9-2.5-2.1-1.7-2-1.7-2.2.1-3.8 3.6-3.4 19.8-16 20.5-16.1.4 0 7.8 7 16.3 15.6zM383 200.1c-12 10.9-13.9 12.9-15 16.4-4.5 13.6 10.9 32 25.9 30.9 7.1-.5 11.1-2.6 21.2-11l9.1-7.6-16.8-16.9c-9.3-9.3-17.3-16.9-17.9-16.9-.5 0-3.5 2.3-6.5 5.1zm22.6 12.3c8.5 8.5 15.4 15.6 15.4 15.9 0 1.1-16.5 14.3-19.4 15.5-8.5 3.7-17.1 1.9-24.3-5.1-7.6-7.3-10.4-16.8-6.9-23.5 1.3-2.5 17.8-18.2 19.2-18.2.3 0 7.5 6.9 16 15.4z"/><path d="M383.1 211.1c-7.4 7.1-7.8 12.9-1.4 20 8.3 9.1 15.8 9.4 25.7.8 1.4-1.2 2.6-2.6 2.6-3.1 0-1-20.7-21.8-21.7-21.8-.5 0-2.8 1.8-5.2 4.1zm15.1 7.8l9.7 9.8-2.2 2c-3.3 3-7.2 5.3-9.8 5.8-3.6.7-10.7-3.3-14-7.8-4.3-5.9-3.9-9.7 1.4-15.2 2.3-2.5 4.4-4.5 4.7-4.5.3 0 4.9 4.4 10.2 9.9zM204.6 383.5c-6.8 2.4-12.5 9.9-12.8 16.8-.1 4.3 1.8 10 4.1 12.1 1.8 1.6 2 1.5 4.9-2 2.8-3.4 2.9-3.8 1.7-6.7-1.1-2.7-1.1-3.6.1-5.9 2.7-5.2 8.4-6 8.4-1.3 0 1.3-1.3 5.7-3 9.8-5 12.5-3.5 19.8 5.1 24.6 4.6 2.6 7.2 2.6 12.4.1 9.4-4.6 14.2-17.7 9.7-26.6-3.4-6.7-4.4-7-8.1-2.4-3.1 3.8-3.1 4.1-1.6 6.9 2.3 4.5 1.8 7-1.9 10.7-3.6 3.6-5.8 3.7-7.6.3-.8-1.4-.1-4.1 2.5-11.1 3.9-10.4 4.2-13.3 1.9-18-3-6.4-9.6-9.4-15.8-7.3zm10 3c6.5 4.2 7.2 9.5 2.8 20.9-3.8 9.9-4.1 12.2-1.7 14.8 2.5 2.8 6.7 2.3 9.7-1.3 3.3-3.9 4.2-7.4 2.7-11.4-1.4-4-1.5-3.8 1-6.6 2-2.4 2.1-2.4 3.5-.4 7.7 10.5-1.2 28.5-14 28.5-2.9 0-4.4-.8-7.6-4-3.5-3.5-4-4.6-4-8.6 0-2.7 1.2-7.5 3-12.1 4.3-10.7 3.8-14.3-2-14.3-5.4 0-9.3 6.7-7.2 12.2.8 2.3.7 3.2-.8 5-1.7 2.1-2 2.1-3.4.8-2.1-2.1-3.4-8.9-2.4-12.6.9-3.7 6.3-9.9 10.3-11.9 3.3-1.6 6.6-1.3 10.1 1z"/><path d="M185.2 405.5L182 410l2.1 5.5c1.1 3 2.1 5.8 2.1 6.2.1.5.7 2.3 1.5 4 1.1 2.7 1.1 3.3 0 3.3-.7 0-1.7-.4-2.2-.8-.6-.5-3.8-1.7-7.3-2.7-7.2-2.1-6.3-2.6-13.4 7.5-3.1 4.4-4.3 7-3.7 8 .8 1.6 9.8 23.4 10.7 26 .2.8-3.8-2.7-9-7.8l-9.5-9.4-2.3 3.7c-1.2 2-2.1 3.8-1.9 4 .2.2 7.8 7.9 16.8 17.1l16.5 16.7 2.3-2.9c3.3-4.1 3.2-4.4-3.2-18.9-.7-1.7-2.5-5.9-3.9-9.5l-2.7-6.5 10 9.9c5.5 5.5 10.2 9.8 10.4 9.5.2-.2 1.4-1.9 2.7-3.7l2.3-3.4-16.4-16.4c-12.6-12.6-15.7-16.2-13.4-15.5 22.8 7 24.7 7.9 30.7 14.1 3.2 3.3 6.3 6 6.8 6s2.1-1.6 3.6-3.6l2.7-3.5-7.1-7.2c-4.4-4.5-7.4-8.5-8-10.7-2.3-8-9.5-28-10.1-28-.4 0-2.1 2-3.9 4.5zm9 15c4.6 13.3 5.1 14.3 10.8 20 3.3 3.3 6 6.5 6 7.1 0 .6-.8 1.9-1.9 2.8-1.8 1.6-2.1 1.4-7.5-4.2-5.5-5.7-5.8-5.9-19.5-10.2l-14-4.4 1.7-2.8c.9-1.5 2.1-2.8 2.7-2.8.6 0 5 1.3 9.8 2.9 4.8 1.7 8.7 2.7 8.7 2.3 0-.4-1.2-3.9-2.6-7.7-4.7-13.1-4.7-13.1-2.2-16.5 1.4-2 2.4-2.6 2.7-1.8.2.7 2.6 7.6 5.3 15.3zm2.7 45.1c.2.2-.2 1.5-.9 2.9l-1.4 2.6-12.4-12.3c-10.2-10.2-12.1-11.7-11-8.8.8 1.9 4.3 10.4 7.8 18.8 5.8 14 6.2 15.4 5 17.8l-1.4 2.5-15.9-15.9c-14.9-14.9-15.8-16.1-14.7-18.2 1.2-2.2 1.6-1.9 13.1 9.6 6.5 6.5 11.9 11.6 11.9 11.3 0-.3-3.3-8.6-7.4-18.4l-7.5-17.9 2-2.7 1.9-2.7 15.3 15.5c8.3 8.5 15.4 15.6 15.6 15.9zm160.9-35.3c-.7.7-6 5.5-11.8 10.6-5.8 5.2-10.9 9.7-11.3 10.1-.5.4 6.6 8.3 15.7 17.4l16.5 16.7 4.3-3.8c6-5.3 6-5.4 10.9-9.8 2.4-2.2 6-5.4 8.1-7.1l3.7-3.1-3.2-3.1-3.2-3.1-7 6.5c-3.8 3.5-8.2 7.3-9.6 8.4l-2.6 2-3.7-3.6c-2-1.9-3.6-3.8-3.6-4.2 0-.4 1.7-2.2 3.8-3.9 2-1.8 5.7-5 8.2-7.2l4.4-4-2.4-2.6c-1.3-1.4-2.8-2.5-3.4-2.5-.6 0-4.5 3.2-8.6 7s-7.7 6.9-8 6.9c-.7 0-4.2-3.1-5.8-5.1-1.5-1.9-2-1.2 9.2-11.2l7.7-6.9-2.8-2.9c-3-3.2-3.6-3.3-5.5-1.5zm-212 31.4c-4 4.5-7.8 13.1-7.8 17.4.1 11.9 17.5 31.5 27.8 31.1 4.3-.2 6.8-2.4 11.7-10.4l3.7-5.9-16.9-17c-15.9-16-17-16.9-18.5-15.2zm17.8 16.9l15.5 15.5-3.6 5.8c-1.9 3.2-4.1 6.3-4.7 6.8-2.9 2.3-6.8 2.3-10.8.3-5.5-2.8-7.4-4.5-12.6-11.2-7.1-9.1-9.2-15.5-7-21.2 1.5-4.2 5.9-11.6 6.9-11.6.4 0 7.7 7 16.3 15.6z"/><path d="M147.1 475.1c-2.9 4.8-2.2 10.6 2 16.5 4.4 6.1 11.8 10.9 15.4 10 2.2-.6 6.5-5.7 6.5-7.7 0-.8-20.7-21.9-21.5-21.9-.3 0-1.4 1.4-2.4 3.1zm20.8 21.2c-1.9 4.2-5.3 4.5-10.2 1.1-9-6.4-12.6-14.2-9.5-20.9l1.2-2.6 9.8 9.9c9.6 9.5 9.9 9.9 8.7 12.5zm-37.4-8.3c-1.7 3.2-1.7 3.2 1.7 6.8 1.8 2 5.3 5.5 7.8 7.8 2.5 2.4 3.9 4.4 3.3 4.4-.7 0-1.3-.4-1.3-1 0-1.4-8.4-6-11.9-6.5-2-.2-3.9.3-5.7 1.7-4 3.2-3.1 9.8 2.7 18.3l4.4 6.5 1.3-2.7c1.3-2.3 1.2-3.1-.7-6.8-2.7-5.4-2.7-7.5 0-7.5 7.4 0 22.4 19.2 18.3 23.3-.6.6-3.7-.9-6.6-3.2-1.9-1.5-1.7-1.6-3.3 3.4-.3 1.2-3.1-.4-11.1-6.5-5.9-4.4-10.9-7.8-11.1-7.6-.3.2-1 2.8-1.6 5.8-1.5 6.5-1.4 14.2.3 19.2 1.4 4.4 5.9 9.6 8.6 10 1 .2 2.9 1.8 4.1 3.7 3.7 5.7 7.5 9.9 8.5 9.3 1.3-.8 3.7 1.5 5.8 5.5 1.7 3.5 23.5 24.1 29.5 28.1 3.5 2.3 5.5 2.5 5.5.6 0-2.2-8.4-12.3-9.8-11.9-.9.4-.6 1.3.9 3.4 1.2 1.7 1.9 3.3 1.5 3.6-1.1 1.2-17.2-13.2-19.5-17.5-2.1-3.9-1.1-4.4 2.8-1.3 2.2 1.8 4.2 2.7 4.5 2.2.6-.9-5.3-6.2-10.9-9.7-4-2.5-25.8-24.5-25-25.2.3-.4 6.3 5.1 13.2 12.1 7 7 12.8 12.6 12.9 12.4.1-.1.4-2.5.7-5.2.4-4.5.2-5.4-2.9-9.1-2.3-2.9-3.1-4.8-2.7-6.3.7-2.6.7-2.6 4.8.4l3.3 2.6 1-3c.9-2.7.8-3.3-1.1-4.6l-2.1-1.5h2.6c5.7 0 7.6-8.5 3.7-17-1.1-2.4-3.8-6.9-6.1-10-3.8-5.2-3.6-5 4.3 2.8 7.8 7.9 8.4 8.2 9.1 6.1.5-1.3 1.3-2.8 1.8-3.4.6-.7-4.8-6.8-16.4-18.4l-17.4-17.4-1.7 3.3zm18.1 15.7c8.4 8.6 15.4 15.9 15.4 16.2 0 .3-.4 1.2-.8 1.8-1.2 1.9-32.5-29.8-31.6-32 .3-1 .8-1.7 1.1-1.7.2 0 7.4 7.1 15.9 15.7zm-13.5-.4c5.4 3.3 10.1 7.7 14.7 13.8 5.1 6.7 7.2 11.7 7.2 16.7 0 4.2-1.4 6.2-4.3 6.2-2.6 0-10.7-5.8-10.7-7.6 0-.9.3-1.4.8-1.2.4.2 2 1 3.5 1.8 3.1 1.5 6.2.5 6.3-2.1.2-7.8-13.8-23.9-20.9-23.9-1.5 0-2.8.8-3.5 2.4-.8 1.9-.6 3.1 1.4 6.6 3.1 5.5 2 7.2-1.6 2.3-2.9-4.1-5.1-9.8-4.7-12.4.8-5.2 6-6.3 11.8-2.6zm-11.8 20.4c1.9 1.6 4.6 3.6 5.9 4.5 2.4 1.7 23.1 16.9 23.7 17.4.1.1 0 .8-.4 1.4-.4.7-2 0-4.5-2l-3.9-3.1-1.1 4.1c-1 3.9-.9 4.2 2.6 8.6 2 2.4 3.5 4.7 3.2 4.9-.3.3-5.8-6.1-12.4-14.2-16.5-20.4-18.4-23-17.7-23.7.9-.8.6-.9 4.6 2.1zm-2.4 4.6l2.5 3.2-3.2-2.9c-3.3-3.1-3.7-3.6-2.4-3.5.4 0 1.8 1.4 3.1 3.2zm.7 8.3c-.2 1.9 0 3.1.4 2.9.4-.3 1.6.5 2.6 1.8 1.9 2.2 1.9 2.2-.2.4-1.1-.9-2.4-1.4-2.7-1-.4.3-1.6-.2-2.7-1.2-1.4-1.3-2-3.1-2-6.3v-4.5l2.5 2.3c1.9 1.8 2.4 3.1 2.1 5.6zm10 5.1c3.7 4.9 7.1 9 7.4 9.3 1.3 1.3 6.4 7.4 5.8 7-.4-.3-5.4-5.1-11.2-10.8-7.8-7.8-10.3-10.8-9.9-12.3.3-1 .6-1.9.8-1.9.1 0 3.3 3.9 7.1 8.7zm-9.6 6.1c0 1.3-.3 1.2-1.5-.4-1.9-2.5-1.9-4 0-2.4.8.7 1.5 2 1.5 2.8zm11 1.7c1.4 1.9 1.4 1.9-.2.6-1-.7-1.8-1.8-1.8-2.4 0-.6.1-.8.3-.6.1.2.9 1.3 1.7 2.4zm4.5 4.5c1 1.1 1.6 2 1.3 2-.3 0-1.3-.9-2.3-2-1-1.1-1.6-2-1.3-2 .3 0 1.3.9 2.3 2zm-2.9 6.7c-.4.4-1.1.1-1.6-.7-1.6-2.5-1.1-3.5.7-1.7.9.9 1.3 2 .9 2.4zm9-.5l2.9 3.3-3.2-2.9c-3.1-2.8-3.8-3.6-3-3.6.2 0 1.6 1.5 3.3 3.2z"/><path d="M123 526.5c.8 1.1 2.4 3.2 3.5 4.6 11.3 14.5 11.3 14.5 11.8 13.9.2-.3.7-1.7 1.1-3.2.5-2.3.1-3.1-3-5.5-2-1.5-6.2-4.8-9.3-7.3-3.1-2.4-4.9-3.5-4.1-2.5zm12.9 11.5c1.3 1 2.1 2.5 1.9 3.1-.2.7-1.4-.1-2.7-1.9-2.6-3.7-2.3-4 .8-1.2zm20.8 29.4l-4.8 1.1 16.3 16.2c10 10 17.1 16.3 18.3 16.3 1.5 0 .5-1.5-4.3-6.3-3.4-3.5-5.9-6.6-5.6-7 2.3-2.3 6.5 0 16.3 9 2.5 2.4 4.6 2.9 5.5 1.4.7-1-11.3-11.9-15.4-14.1-1.6-.8-2.9-1.8-3-2.3v-1.5c0-1.2-5.2-6.6-9.1-9.5-5-3.8-8.5-4.6-14.2-3.3zm15.5 9.2c2.6 2.9 2.5 4.7-.1 5.3-2 .5-3.2-.2-6.7-3.9-4.1-4.3-4.2-4.5-2.1-5.1 2.5-.7 6.4 1 8.9 3.7zM501 126.9c0 .5.9 2 2 3.4s2 2.8 2 3.1c0 .4 1.5 2.9 3.3 5.6l3.3 4.8 3.7-2.1c2-1.1 3.7-2.4 3.7-2.7 0-.4-4-3.4-9-6.8-4.9-3.3-9-5.7-9-5.3zm15 12.2c0 .7-2.5 1.9-3.9 1.9-.7 0-5.1-7.2-5.1-8.4 0-.4 2 .7 4.5 2.5s4.5 3.6 4.5 4zm35.6-43.3c-2.4 2.3 3.7 12.2 7.5 12.2 1.8 0 1.9-.1.3-2.5-.8-1.3-1.3-2.9-.9-3.5.9-1.5 3.8.4 13 8.7 3.3 2.9 10.5 11.5 10.5 12.4 0 1.9-3 .8-7.5-2.7-5.7-4.3-9.4-4-4.3.5 4.8 4.2 12.9 9.1 15 9.1 1 0 1.8.6 1.8 1.3 0 .7 7.4 8.6 16.5 17.7l16.5 16.4v-3.6c0-2.7-.9-4.7-3.6-7.9l-3.6-4.3.5 3.3.6 3.4-4-3.9c-2.2-2.2-4.1-5.1-4.5-7-.3-1.8-1.9-4.5-3.6-6.1l-3-2.8.8 3 .7 3-3.6-3.4c-1.9-1.8-3.8-4.7-4.1-6.5-.6-2.9-2.1-4.8-12.5-16.1-12.3-13.3-26-23.3-28.5-20.7z"/></svg>